<svg width="24" height="24" fill="none" xmlns="http://www.w3.org/2000/svg"><rect width="24" height="24" rx="12" fill="#0B0B0B"/><path fill-rule="evenodd" clip-rule="evenodd" d="M11.636 6.632c-.149.077-1.347.706-2.663 1.397-2.688 1.412-2.64 1.381-2.83 1.761-.053.107-.09.21-.083.228.023.06 5.908 3.177 5.967 3.162.102-.026 5.899-3.125 5.912-3.16.008-.02-.03-.123-.083-.23-.192-.385-.112-.335-3.071-1.89-2.102-1.105-2.662-1.389-2.758-1.398-.105-.01-.155.007-.391.13zM6 13.494c0 1.447.01 2.499.024 2.494.013-.005.935-.64 2.05-1.41 1.566-1.084 2.017-1.408 1.991-1.431a303.848 303.848 0 00-4.05-2.155c-.008 0-.015 1.126-.015 2.502zm9.951-1.428a220.36 220.36 0 00-2.029 1.09c-.016.017 3.969 2.8 4.054 2.832.014.005.024-1.047.024-2.494 0-1.376-.009-2.501-.02-2.5-.011 0-.924.483-2.029 1.072zm-7.363 3.188c-1.306.904-2.374 1.654-2.374 1.668 0 .057.307.339.452.415.33.174-.02.163 5.334.163 5.355 0 5.005.01 5.334-.163.147-.077.452-.358.452-.416 0-.032-4.71-3.293-4.752-3.291-.016 0-.222.106-.458.235-.392.213-.441.233-.576.234-.13 0-.18-.018-.429-.154a98.646 98.646 0 00-.445-.244l-.165-.09-2.373 1.643z" fill="#fff"/></svg>