<svg width="6" height="6" fill="none" xmlns="http://www.w3.org/2000/svg"><path fill-rule="evenodd" clip-rule="evenodd" d="M5.173.014c-.089.04-.574.428-.874.7a16.792 16.792 0 00-2.186 2.45 3.194 3.194 0 01-.187.245c-.006.001-.301-.22-.657-.49l-.671-.51a.146.146 0 00-.073-.019c-.042 0-.068.023-.285.258-.296.32-.29.297-.136.528.715 1.072 1.46 2.249 1.678 2.651.054.1.084.14.117.158.051.026.11.018.142-.02a6.05 6.05 0 00.17-.302c.677-1.243 1.534-2.621 2.24-3.6A14.51 14.51 0 015.655.578C5.978.228 6 .2 6 .15c0-.067-.018-.103-.067-.13C5.901.003 5.832 0 5.55.001c-.19 0-.36.006-.376.013z" fill="#1E1E1E"/></svg>