<svg width="57" height="53" fill="none" xmlns="http://www.w3.org/2000/svg"><path fill-rule="evenodd" clip-rule="evenodd" d="M0 51.814c.783.142 1.59.212 2.422.212 3.21 0 6.026-1.052 8.447-3.158 2.421-2.105 4.29-5.079 5.606-8.92 1.368-3.843 2.052-8.317 2.052-13.422 0-5.106-.657-9.606-1.973-13.5-1.316-3.895-3.184-6.922-5.606-9.08C8.528 1.788 5.738.71 2.58.71 1.69.71.83.79 0 .95v1.109a5.946 5.946 0 011.711-.243c3.21 0 5.764 2.157 7.658 6.473 1.948 4.264 2.921 10.659 2.921 19.185 0 15.58-2.973 23.37-8.92 23.37A7.118 7.118 0 010 50.028v1.785zm29.44-1.288c0 .316.078.474.236.474 2.369 0 4.21-.026 5.527-.079l7.658-.079 7.658.08c1.368.052 3.21.078 5.526.078.105 0 .158-.158.158-.474 0-.315-.053-.473-.158-.473-3.105 0-5.395-.132-6.868-.395-1.422-.263-2.395-.763-2.922-1.5-.526-.79-.789-1.974-.789-3.553V1.42a.536.536 0 00-.158-.395c-.105-.105-.21-.158-.316-.158-.105 0-.29.08-.552.237L28.57 12.71c-.157.105-.183.289-.078.552.105.21.263.316.473.316l.158-.079c4.527-3.263 7.527-4.895 9-4.895.738 0 1.264.369 1.58 1.105.316.685.473 1.764.473 3.237v31.66c0 1.526-.315 2.683-.947 3.473-.579.737-1.605 1.263-3.08 1.579-1.42.263-3.578.395-6.473.395-.158 0-.237.158-.237.473z" fill="#E6EAED"/></svg>