<svg width="27" height="26" fill="none" xmlns="http://www.w3.org/2000/svg"><path fill-rule="evenodd" clip-rule="evenodd" d="M11.952.093C7.968.47 4.339 2.72 2.182 6.153c-2.467 3.924-2.616 9.01-.383 13.07a13.286 13.286 0 004.17 4.563c1.69 1.13 3.504 1.811 5.628 2.113.592.085 2.596.085 3.194.002 3.197-.449 5.84-1.824 7.996-4.161 1.768-1.916 2.902-4.372 3.294-7.13.1-.702.085-2.548-.027-3.345-.11-.785-.409-1.992-.665-2.69-.229-.624-.85-1.897-1.172-2.405a13.796 13.796 0 00-3.9-3.996c-.673-.449-1.984-1.106-2.735-1.371a13.282 13.282 0 00-5.63-.71zm2.695 1.339c1.78.233 3.544.882 4.96 1.825 2.592 1.723 4.424 4.42 5.017 7.385.2 1.002.247 1.585.218 2.7-.049 1.82-.384 3.192-1.18 4.819-1.63 3.336-4.803 5.713-8.49 6.36-.8.14-2.418.194-3.197.106-2.316-.263-4.509-1.189-6.24-2.636-2.69-2.246-4.202-5.474-4.202-8.97 0-1.871.38-3.52 1.189-5.153a11.142 11.142 0 012.383-3.26c1.826-1.755 4.061-2.831 6.593-3.175.71-.096 2.218-.097 2.949-.001zM12.88 5.276c-.504.139-.835.488-.95 1.006-.12.535.165 1.121.669 1.378 1.209.616 2.402-.752 1.643-1.883-.278-.414-.877-.634-1.362-.5zm-1.29 4.59c-.226.138-.323.3-.323.54 0 .272.175.535.408.615.096.033.33.062.518.063l.342.003v7.757h-.686c-.785 0-.98.053-1.138.313-.204.334-.069.787.277.932.257.107 4.155.107 4.412 0 .346-.145.48-.598.277-.932-.159-.26-.353-.313-1.138-.313h-.686v-4.272c0-4.046-.005-4.281-.093-4.449-.16-.305-.33-.354-1.225-.354-.684 0-.806.013-.945.097z" fill="#fff"/></svg>