<svg width="182" height="34" fill="none" xmlns="http://www.w3.org/2000/svg"><path d="M15.545 1.355H1.342v10.793h6.697c2.496.036 4.465.662 5.906 1.881 1.442 1.207 2.162 2.889 2.162 5.045 0 2.133-.726 3.82-2.18 5.063-1.44 1.23-3.45 1.851-6.029 1.863H.393V.406h15.152v.95zM1.342 13.098V25.05h6.486c2.32 0 4.12-.533 5.397-1.6 1.277-1.078 1.916-2.549 1.916-4.412 0-1.781-.633-3.21-1.899-4.289-1.254-1.078-3.006-1.629-5.256-1.652H1.342zm27 11.425l.123-.351L35.039 6.98h1.055l-8.508 22.325-.422 1.054c-.914 2.215-2.426 3.323-4.535 3.323-.68 0-1.149-.065-1.406-.194l-.018-.896c.375.105.803.158 1.283.158.996 0 1.823-.293 2.479-.879.656-.574 1.224-1.517 1.705-2.83l1.16-3.146L20.256 6.98h1.037l7.049 17.543zm16.945-9.105l6.065-8.438h1.195l-6.68 9.264L52.898 26h-1.177l-6.451-8.93L38.836 26h-1.178l7.032-9.756-6.68-9.264h1.195l6.082 8.438zm38.742-.299c0 2.215-.398 4.178-1.195 5.889-.785 1.699-1.91 3.017-3.375 3.955-1.465.926-3.152 1.389-5.063 1.389-2.882 0-5.214-1.026-6.996-3.077-1.78-2.05-2.672-4.816-2.672-8.296v-1.864h-5.747V26h-.95V.406h.95v11.76h5.747v-.72c0-3.505.885-6.276 2.655-8.315C69.153 1.08 71.479.055 74.36.055c1.91 0 3.598.468 5.063 1.406 1.476.926 2.613 2.25 3.41 3.973.797 1.71 1.195 3.662 1.195 5.853v3.832zm-.949-3.867c0-3.094-.785-5.572-2.355-7.436-1.57-1.875-3.692-2.812-6.364-2.812-2.636 0-4.74.932-6.31 2.795-1.57 1.851-2.356 4.377-2.356 7.576v3.744c0 2.04.352 3.844 1.055 5.414.715 1.559 1.728 2.76 3.041 3.604 1.313.843 2.848 1.265 4.606 1.265 2.671 0 4.787-.931 6.345-2.795 1.559-1.863 2.338-4.406 2.338-7.628v-3.727zm21.691 5.414c0 2.965-.638 5.32-1.916 7.066-1.277 1.747-3.017 2.62-5.22 2.62-1.442 0-2.725-.293-3.85-.88-1.125-.585-2.004-1.394-2.637-2.425v10.265H90.2V6.98h.95v3.393c.656-1.207 1.54-2.133 2.654-2.777 1.113-.645 2.379-.967 3.797-.967 2.226 0 3.978.855 5.255 2.566 1.278 1.7 1.916 4.09 1.916 7.172v.299zm-.966-.37c0-2.73-.545-4.862-1.635-6.398-1.078-1.546-2.596-2.32-4.553-2.32-1.594 0-2.947.416-4.06 1.248-1.114.82-1.916 2.004-2.409 3.551v8.894c.493 1.313 1.295 2.332 2.409 3.06 1.125.714 2.49 1.071 4.095 1.071 1.946 0 3.457-.773 4.536-2.32 1.078-1.547 1.617-3.809 1.617-6.785zm14.871 1.776L127.412.406h1.16l-10.511 21.041-.633 1.196c-1.371 2.484-3.235 3.726-5.59 3.726-.668 0-1.178-.076-1.529-.228l.263-.897c.328.117.78.176 1.354.176a4.364 4.364 0 002.724-.914c.809-.621 1.577-1.647 2.303-3.076l1.195-2.338L107.514.406h1.177l9.985 17.666zM144.814 26h-.949v-9.176c-.844.41-1.799.75-2.865 1.02-1.055.258-1.945.386-2.672.386-1.898 0-3.34-.222-4.324-.668-.984-.457-1.711-1.195-2.18-2.214-.457-1.032-.685-2.438-.685-4.22V6.98h.949v4.149c0 1.559.199 2.783.598 3.674.398.879 1.025 1.511 1.88 1.898.868.387 2.122.58 3.762.58.938-.047 1.94-.199 3.006-.457 1.078-.27 1.922-.568 2.531-.896V6.98h.949V26zm12.903.352a7.74 7.74 0 01-4.237-1.23c-1.277-.833-2.279-1.97-3.005-3.411-.727-1.441-1.09-3.041-1.09-4.799v-.79c0-1.759.351-3.37 1.054-4.835.704-1.465 1.67-2.607 2.901-3.428a7.109 7.109 0 014.025-1.23c2.121 0 3.856.756 5.203 2.267 1.348 1.512 2.022 3.498 2.022 5.96v1.001h-14.256v1.038c0 1.546.322 2.982.967 4.306.656 1.313 1.553 2.344 2.689 3.094 1.149.75 2.391 1.125 3.727 1.125 1.277 0 2.361-.211 3.252-.633.902-.433 1.699-1.096 2.39-1.986l.668.474c-1.418 2.051-3.521 3.077-6.31 3.077zm-.352-18.774c-1.851 0-3.422.692-4.711 2.074-1.289 1.371-2.045 3.123-2.267 5.256h13.254v-.228a7.9 7.9 0 00-.827-3.586c-.539-1.114-1.289-1.975-2.25-2.584-.949-.621-2.015-.932-3.199-.932zm24.627.37h-7.471V26h-.949V7.947h-7.084V6.98h15.504v.967z" fill="#fff"/></svg>