<svg width="33" height="31" fill="none" xmlns="http://www.w3.org/2000/svg"><path fill-rule="evenodd" clip-rule="evenodd" d="M15.75 4.432v4.431h4.063V31H32.5V2.603l-.14-.032c-.078-.018-3.77-.59-8.204-1.27C19.722.62 16.016.048 15.922.03L15.75 0v4.432zm9.063 12.46v8.03h-2V8.863h2v8.03zm4.562 1.365v9.393h-2V8.863h2v9.394zm-21.75 2.666V31l5.078-.015 5.078-.016.016-10.06.016-10.06H7.625v10.075zm6.563-5.053v.992h-3v-1.984h3v.992zM.5 23.434V31l2.547-.016 2.547-.016v-4.34l-.985-.018-.984-.017v-1.98h2v-2.605h-2v-1.98l.984-.018.985-.017v-4.092l-2.547-.016L.5 15.868v7.566zm13.688-3.038v.992h-3v-1.984h3v.992zm0 4.526v.992h-3V23.93h3v.992z" fill="#fff"/></svg>