<svg width="36" height="36" fill="none" xmlns="http://www.w3.org/2000/svg"><path fill-rule="evenodd" clip-rule="evenodd" d="M2.859.1c-.576.148-1.007.4-1.44.846a3.046 3.046 0 00-.843 1.571C.521 2.785.5 7.432.5 19.026c0 16.033 0 16.138.138 16.413a.957.957 0 00.407.42c.268.14.377.141 12.683.141h12.414v-5.853l-.47.495c-.513.54-1.042.86-1.636.99-.259.056-3.053.079-9.744.079-8.795 0-9.397-.008-9.62-.123-.732-.378-.732-1.485 0-1.863.223-.115.748-.123 8.024-.123 7.388 0 7.782-.007 7.734-.123-.095-.232-.119-1.276-.036-1.616.162-.672 1.602-5.196 1.751-5.504.085-.174 1.01-1.835 2.058-3.691l1.905-3.375.034-7.242.034-7.242.15-.405.15-.404L14.84.006C5.767.011 3.126.031 2.858.1zm26.325.006c-.35.127-.82.637-.916.99-.048.177-.074 1.29-.075 3.105v2.83h1.13c1.323 0 1.569-.076 1.81-.56.13-.263.137-.41.137-2.689 0-1.546-.028-2.512-.076-2.692-.101-.373-.621-.908-.984-1.011a1.6 1.6 0 00-1.026.027zM14.222 4.399c1.38.293 2.51 1.213 3.105 2.527.316.7.405 1.13.405 1.957 0 .95-.245 1.785-.742 2.528l-.205.306.457.23a5.907 5.907 0 013.09 3.963c.098.422.134.826.135 1.5 0 .84-.013.942-.155 1.16-.335.515.103.485-6.99.485s-6.656.03-6.99-.485c-.142-.218-.156-.32-.155-1.16 0-1.142.152-1.857.582-2.753a5.89 5.89 0 012.537-2.65l.56-.295-.204-.303c-.495-.741-.74-1.577-.74-2.526 0-.83.089-1.258.406-1.957.873-1.922 2.88-2.957 4.904-2.527zm-1.447 2.062a2.68 2.68 0 00-1.597 1.307c-.163.317-.181.428-.181 1.091s.018.775.181 1.092c.226.44.774.974 1.203 1.173.255.119.458.151.94.151.484 0 .686-.032.942-.15.428-.2.977-.735 1.202-1.174.163-.317.182-.429.182-1.092s-.019-.774-.182-1.09c-.228-.445-.779-.98-1.202-1.168-.356-.158-1.155-.233-1.488-.14zM32.91 8.569c-.38.13-.755.373-.963.629-.193.236-1.653 2.764-1.615 2.797.08.068 3.489 2.067 3.523 2.065.097-.005 1.511-2.65 1.59-2.972.219-.902-.24-1.921-1.059-2.35-.371-.194-1.14-.282-1.476-.169zm-21.837 4.972c-.953.237-1.97 1.037-2.419 1.903-.209.404-.428 1.108-.428 1.376 0 .12.245.125 5.102.125h5.101l-.048-.33c-.209-1.435-1.409-2.729-2.855-3.08-.593-.143-3.87-.14-4.453.006zM27.1 17.7a3250.762 3250.762 0 00-2.375 4.242l-.22.399 1.732 1.03c.953.565 1.76 1.028 1.793 1.027.047-.001 3.141-5.451 4.588-8.082l.219-.397-1.738-1.033c-.956-.569-1.763-1.032-1.792-1.031-.03.001-1.022 1.732-2.207 3.845zm-8.549 3.588c.732.378.732 1.485 0 1.863-.221.115-.695.123-6.939.123-7.475 0-6.996.032-7.332-.485-.325-.5-.134-1.228.393-1.5.222-.115.696-.124 6.94-.124 6.243 0 6.717.009 6.938.123zm4.459 5.032c-.369 1.168-.628 2.108-.628 2.275 0 .76.912 1.26 1.533.842.093-.063.786-.816 1.541-1.675 1.077-1.225 1.354-1.58 1.286-1.642-.123-.115-2.974-1.79-3.045-1.79-.033 0-.342.895-.687 1.99zm-4.459-.813c.732.378.732 1.485 0 1.863-.221.114-.695.123-6.939.123-7.475 0-6.996.032-7.332-.485-.325-.5-.134-1.228.393-1.501.222-.114.696-.123 6.94-.123 6.243 0 6.717.009 6.938.123z" fill="#fff"/></svg>