<svg width="13" height="13" fill="none" xmlns="http://www.w3.org/2000/svg"><path d="M12.459 5.958a.542.542 0 01-.542-.541 4.337 4.337 0 00-4.334-4.334.542.542 0 010-1.083A5.423 5.423 0 0113 5.417a.542.542 0 01-.541.541zm-1.625-.541a3.25 3.25 0 00-3.25-3.25.542.542 0 000 1.083A2.167 2.167 0 019.75 5.417a.542.542 0 001.084 0zm1.182 6.588l.493-.568a1.68 1.68 0 000-2.37c-.017-.017-1.32-1.02-1.32-1.02a1.68 1.68 0 00-2.32.003l-1.031.87a6.925 6.925 0 01-3.755-3.76l.866-1.03a1.68 1.68 0 00.004-2.319S3.95.51 3.933.492A1.67 1.67 0 001.589.467l-.623.542C-2.714 5.278 5.211 13.14 9.621 13a3.334 3.334 0 002.395-.995z" fill="#fff"/></svg>