<svg width="11" height="18" fill="none" xmlns="http://www.w3.org/2000/svg"><path fill-rule="evenodd" clip-rule="evenodd" d="M9.388.072c.155.06.273.153.604.482.508.504.577.624.579 1.006 0 .205-.018.32-.066.422-.046.095-1.176 1.247-3.512 3.579L3.55 8.999l3.448 3.439c2.682 2.674 3.464 3.473 3.52 3.596a.944.944 0 01.071.387c0 .36-.102.539-.592 1.023-.345.34-.446.42-.617.484a.945.945 0 01-.72.001c-.196-.07-.38-.248-4.341-4.194C-.258 9.177.003 9.463.003 8.999c0-.463-.261-.177 4.315-4.736C8.28.316 8.463.14 8.658.07a.98.98 0 01.73.003z" fill="gray"/></svg>