<svg width="28" height="28" fill="none" xmlns="http://www.w3.org/2000/svg"><path fill-rule="evenodd" clip-rule="evenodd" d="M1.334.03A1.86 1.86 0 00.157.997c-.19.389-.192 1.083-.004 1.48.104.22 1.219 1.365 5.746 5.902l5.616 5.629-5.616 5.628C-.204 25.752.062 25.458.006 26.148c-.056.688.29 1.313.917 1.659.332.182.388.195.821.193.37-.002.522-.03.74-.131.222-.105 1.334-1.19 5.898-5.749l5.625-5.62 5.625 5.62c4.564 4.56 5.677 5.644 5.899 5.748.218.103.367.13.739.13.426.002.494-.013.81-.183.384-.208.55-.38.764-.792.201-.388.209-1.075.016-1.485-.104-.223-1.188-1.336-5.745-5.903L16.5 14.007l5.616-5.629c4.557-4.567 5.64-5.68 5.745-5.902.103-.22.129-.368.13-.74.002-.427-.013-.494-.184-.81-.207-.386-.38-.552-.792-.766-.387-.2-1.074-.208-1.484-.015-.222.104-1.335 1.188-5.899 5.748l-5.625 5.62-5.625-5.62C3.796 1.311 2.708.251 2.49.152 2.2.02 1.609-.042 1.334.03z" fill="#fff"/></svg>