<svg width="24" height="24" fill="none" xmlns="http://www.w3.org/2000/svg"><rect width="24" height="24" rx="12" fill="#0B0B0B"/><path fill-rule="evenodd" clip-rule="evenodd" d="M12.196 6.014c0 .013-.027.205-.059.427a9.918 9.918 0 00-.059.445c0 .033.035.047.182.07a6.06 6.06 0 012.211.87c.386.255.63.453.949.768a5.825 5.825 0 011.621 2.949c.045.201.058.234.097.23a12.7 12.7 0 00.86-.146c.009-.008-.01-.13-.04-.273a6.871 6.871 0 00-3.677-4.709 6.557 6.557 0 00-1.757-.59 7.281 7.281 0 01-.275-.052c-.03-.007-.053-.002-.053.011zM7.839 7.168c-.226.047-.33.128-.933.724-.32.318-.619.633-.662.7-.422.648-.296 1.722.372 3.168.747 1.619 2.09 3.252 3.632 4.415.908.684 1.99 1.274 2.887 1.573.741.247 1.438.317 1.882.189.332-.096.406-.152 1.068-.81.557-.554.622-.627.69-.774a.629.629 0 00.077-.342.631.631 0 00-.076-.341c-.07-.151-.14-.227-.926-1.01-.692-.69-.873-.858-.979-.909a.807.807 0 00-.498-.085c-.253.048-.348.118-.936.697-.305.3-.572.546-.594.546-.057 0-.61-.285-.824-.424-.829-.541-1.771-1.458-2.374-2.31a4.489 4.489 0 01-.443-.743c-.085-.177-.106-.242-.093-.293.01-.042.207-.258.553-.606.48-.482.545-.557.61-.7.123-.27.096-.53-.08-.795-.046-.067-.445-.483-.888-.924-.723-.72-.82-.81-.957-.872a.855.855 0 00-.508-.074zm4.232 1.288a11.3 11.3 0 00-.108.856c.006.007.095.029.198.05a3.2 3.2 0 012.453 2.389c.024.101.047.187.051.19.01.009.887-.144.9-.157.014-.014-.026-.213-.087-.429a4.153 4.153 0 00-3.215-2.927l-.18-.034-.012.062z" fill="#fff"/></svg>