<svg width="24" height="25" fill="none" xmlns="http://www.w3.org/2000/svg"><rect y=".5" width="24" height="24" rx="12" fill="#0B0B0B"/><path fill-rule="evenodd" clip-rule="evenodd" d="M11.425 6.537a3.588 3.588 0 00-1.397.605 4.327 4.327 0 00-.759.79c-.18.267-.384.714-.469 1.033a3.89 3.89 0 00-.059 1.382c.08.457.276.943.535 1.325.15.22.52.605.752.78.23.173.65.39.945.488a3.414 3.414 0 002.062 0c.483-.162.878-.4 1.248-.756.408-.392.678-.814.856-1.339.22-.65.224-1.43.008-2.08a3.912 3.912 0 00-.489-.944 4.321 4.321 0 00-.78-.752 3.534 3.534 0 00-1.305-.531 4.406 4.406 0 00-1.148 0zM8.45 12.883c-1.04.436-1.87 1.148-2.227 1.912-.156.335-.201.525-.219.927-.018.42.037.697.21 1.043.14.285.569.716.903.912.714.417 1.626.648 3.11.787.518.048 3.037.048 3.555 0 1.586-.149 2.548-.41 3.251-.88.295-.197.631-.559.763-.821.172-.341.228-.62.21-1.04-.018-.403-.063-.593-.22-.928-.263-.564-.755-1.078-1.438-1.503-.233-.145-.896-.477-.953-.477-.015 0-.1.07-.187.156a4.71 4.71 0 01-1.214.867c-1.687.844-3.748.524-5.126-.797a2.855 2.855 0 00-.248-.224c-.008 0-.084.03-.17.066z" fill="#fff"/></svg>