<svg width="18" height="18" fill="none" xmlns="http://www.w3.org/2000/svg"><path fill-rule="evenodd" clip-rule="evenodd" d="M9.124.098c0 .019-.038.296-.085.616-.047.32-.085.608-.085.641 0 .049.05.068.263.102 1.04.165 2.286.656 3.19 1.254.556.369.908.654 1.368 1.109a8.404 8.404 0 012.34 4.254c.064.291.084.338.14.333a19.15 19.15 0 001.24-.21c.013-.012-.013-.19-.058-.395a9.914 9.914 0 00-5.305-6.794C11.274.586 10.408.295 9.597.156 9.421.126 9.242.092 9.2.082c-.042-.01-.076-.003-.076.016zM2.837 1.763c-.326.067-.475.183-1.345 1.044-.463.459-.894.913-.956 1.01-.608.935-.426 2.485.536 4.57 1.078 2.336 3.017 4.693 5.241 6.37 1.31.988 2.87 1.84 4.165 2.271 1.07.357 2.076.457 2.716.272.48-.138.586-.22 1.54-1.169.804-.799.898-.904.997-1.117.094-.2.11-.273.11-.492a.91.91 0 00-.11-.493c-.1-.217-.2-.327-1.335-1.457-.999-.996-1.26-1.239-1.412-1.311-.256-.123-.5-.164-.72-.122-.365.068-.5.17-1.35 1.005-.44.433-.825.787-.857.787-.082 0-.88-.411-1.188-.612-1.196-.78-2.556-2.103-3.425-3.333-.3-.424-.44-.658-.64-1.072-.123-.255-.153-.349-.135-.422.015-.06.3-.372.799-.874.693-.697.786-.804.88-1.01.177-.39.14-.764-.117-1.147-.064-.097-.64-.698-1.28-1.334C3.91 2.088 3.769 1.96 3.572 1.869a1.233 1.233 0 00-.734-.106zM8.944 3.62c-.047.245-.17 1.222-.156 1.236.009.01.137.042.286.072a4.617 4.617 0 013.539 3.447c.035.146.068.27.073.274.016.013 1.28-.208 1.299-.226.02-.021-.037-.308-.126-.62A5.992 5.992 0 009.22 3.582l-.259-.05-.017.09z" fill="#fff"/></svg>