<svg width="56" height="53" fill="none" xmlns="http://www.w3.org/2000/svg"><path fill-rule="evenodd" clip-rule="evenodd" d="M0 51.814c.783.142 1.59.212 2.422.212 3.21 0 6.026-1.052 8.447-3.158 2.421-2.105 4.29-5.079 5.606-8.92 1.368-3.843 2.052-8.317 2.052-13.422 0-5.106-.657-9.606-1.973-13.5-1.316-3.895-3.184-6.922-5.606-9.08C8.528 1.788 5.738.71 2.58.71 1.69.71.83.79 0 .95v1.109a5.946 5.946 0 011.711-.243c3.21 0 5.764 2.157 7.658 6.473 1.948 4.264 2.921 10.659 2.921 19.185 0 15.58-2.973 23.37-8.92 23.37A7.118 7.118 0 010 50.028v1.785zm26.518-1.288c.21.316.421.474.632.474h27.08c.21 0 .394-.079.552-.237.158-.21.237-.42.237-.631l.079-9.316c0-.106-.158-.158-.474-.158-.263 0-.395.052-.395.158-.052 1.736-.657 2.973-1.816 3.71-1.105.737-3.078 1.21-5.92 1.421-2.79.21-7.475.316-14.054.316-.263 0-.42-.026-.473-.079-.053-.105-.027-.263.079-.473.684-.895 2.447-2.922 5.29-6.08 3.157-3.42 5.815-6.447 7.973-9.079a46.324 46.324 0 005.684-8.763c1.632-3.158 2.448-6.237 2.448-9.237 0-3.474-1.105-6.29-3.316-8.448-2.158-2.21-5.158-3.316-9-3.316-3.632 0-6.711 1.053-9.237 3.158C29.36 6 27.729 8.867 26.992 12.552c-.053.21.158.316.631.316.21 0 .316-.027.316-.08.79-2.631 2.08-4.684 3.869-6.158 1.842-1.473 4.079-2.21 6.71-2.21 2.843 0 5.053.868 6.632 2.605 1.58 1.737 2.369 4.184 2.369 7.342 0 2.948-.764 6.027-2.29 9.238-1.474 3.21-3.368 6.368-5.684 9.474-2.264 3.105-5.421 7.158-9.474 12.158-1.58 2-2.79 3.5-3.632 4.5-.158.21-.131.474.08.79z" fill="#E6EAED"/></svg>