<svg width="56" height="53" fill="none" xmlns="http://www.w3.org/2000/svg"><path fill-rule="evenodd" clip-rule="evenodd" d="M0 51.814c.783.142 1.59.212 2.422.212 3.21 0 6.026-1.052 8.447-3.158 2.421-2.105 4.29-5.079 5.606-8.92 1.368-3.843 2.052-8.317 2.052-13.422 0-5.106-.657-9.606-1.973-13.5-1.316-3.895-3.184-6.922-5.606-9.08C8.528 1.788 5.738.71 2.58.71 1.69.71.83.79 0 .95v1.109a5.946 5.946 0 011.711-.243c3.21 0 5.764 2.157 7.658 6.473 1.948 4.264 2.921 10.659 2.921 19.185 0 15.58-2.973 23.37-8.92 23.37A7.118 7.118 0 010 50.028v1.785zM52.73 28.5c-1.948-2.422-4.711-3.764-8.29-4.027 2.842-1.105 5.105-2.816 6.79-5.132 1.684-2.368 2.526-4.895 2.526-7.579 0-3.158-1.08-5.763-3.237-7.816C48.36 1.841 45.439.788 41.755.788c-3.21 0-6.026.816-8.447 2.448-2.369 1.579-4.158 3.816-5.369 6.71-.052.106 0 .21.158.316.21.105.395.158.553.158.105 0 .158-.026.158-.079.894-2.053 2.316-3.605 4.263-4.658 2-1.053 4.105-1.579 6.316-1.579 2.684 0 4.79.842 6.316 2.526 1.579 1.632 2.368 4.053 2.368 7.264 0 3.263-.947 5.842-2.842 7.737-1.895 1.842-5.105 2.763-9.632 2.763-.21 0-.316.21-.316.632.053.368.158.552.316.552 9.369 0 14.053 4.053 14.053 12.159 0 3.473-.868 6.316-2.605 8.526s-4.369 3.316-7.895 3.316c-1.895 0-3.79-.342-5.684-1.026-1.843-.737-3.422-1.79-4.737-3.158-.106-.158-.29-.158-.553 0-.21.105-.316.263-.316.473l.08.158c3.63 3.948 7.894 5.921 12.789 5.921 2.895 0 5.474-.605 7.737-1.815 2.316-1.264 4.105-3 5.369-5.211 1.263-2.263 1.894-4.842 1.894-7.737 0-3.421-1-6.316-3-8.684z" fill="#E6EAED"/></svg>