<svg width="30" height="30" fill="none" xmlns="http://www.w3.org/2000/svg"><path fill-rule="evenodd" clip-rule="evenodd" d="M17.687.017c-.096.014-.387.053-.645.087-4.516.591-8.377 4.02-9.503 8.441-.277 1.085-.346 1.656-.346 2.87 0 1.214.069 1.786.346 2.87 1.007 3.951 4.232 7.175 8.186 8.181 1.085.277 1.657.345 2.872.345 1.214 0 1.786-.068 2.872-.345 3.953-1.006 7.179-4.23 8.186-8.18.276-1.085.345-1.657.345-2.87 0-1.215-.069-1.786-.345-2.87-.496-1.946-1.519-3.723-2.99-5.193-1.746-1.745-3.822-2.805-6.31-3.224-.532-.09-2.3-.164-2.668-.112zm3.55 10.519v5.276h-1.76V5.26h1.76v5.277zm-3.52 1.759v3.517h-1.76V8.777h1.76v3.518zm7.04 0v3.517h-1.76V8.777h1.76v3.518zm-10.56 1.758v1.76h-1.76v-3.518h1.76v1.758zM3.793 22.487L0 26.277l1.863 1.862L3.726 30l3.794-3.796 3.794-3.796-.568-.41c-.735-.532-2.157-1.947-2.719-2.707l-.44-.596-3.794 3.792z" fill="#fff"/></svg>