<svg width="32" height="30" fill="none" xmlns="http://www.w3.org/2000/svg"><path fill-rule="evenodd" clip-rule="evenodd" d="M.125.168c-.163.208-.167.408-.01.601.12.149.133.15 1.722.182L3.44.982l.085.57c.523 3.483 2.945 18.506 3.028 18.783a.686.686 0 00.168.238c.131.122.283.124 10.865.125 10.31.002 10.741.006 10.985.119.859.398 1.056 1.483.386 2.128-.145.14-.38.29-.523.333-.199.06-2.701.077-10.924.077-10.065 0-10.673.006-10.799.111a.474.474 0 00-.07.666l.136.174 10.929-.017 10.928-.016.37-.187c.91-.462 1.44-1.517 1.243-2.48-.155-.764-.726-1.455-1.44-1.743l-.363-.147-10.522-.017c-5.787-.01-10.522-.038-10.523-.064 0-.025-.07-.459-.157-.963a35.424 35.424 0 01-.158-.965c0-.027 4.33-.048 9.624-.048 6.773 0 9.662-.02 9.752-.068a.61.61 0 00.21-.27c.046-.11 1.072-3.553 2.28-7.652 1.538-5.217 2.185-7.5 2.157-7.612a.733.733 0 00-.165-.285c-.123-.124-.265-.125-13.25-.125H4.568L4.46.967C4.298-.075 4.477.001 2.17.001H.256l-.13.167zm11.532 25.975c-.385.152-.832.562-1.041.955-.126.236-.147.368-.147.909 0 .583.014.66.187.972.366.66 1.002 1.022 1.793 1.021.508 0 .99-.198 1.364-.557.952-.916.748-2.556-.397-3.199-.296-.166-.42-.195-.886-.212-.432-.015-.61.007-.873.111zm10.425-.074a2.236 2.236 0 00-1.274 1.084c-.124.237-.149.38-.149.854 0 .493.023.612.168.886.368.698.93 1.06 1.698 1.096 1.325.063 2.275-1.001 2.073-2.321a1.961 1.961 0 00-1.005-1.431c-.28-.153-.426-.188-.845-.202-.28-.01-.579.005-.666.034z" fill="#fff"/></svg>