<svg width="11" height="11" viewBox="0 0 11 11" fill="none" xmlns="http://www.w3.org/2000/svg">
<path d="M6.96308 5.75L9.69745 8.51172C10.0529 8.83984 10.0529 9.38672 9.69745 9.71484L9.09589 10.3164C8.76777 10.6719 8.22089 10.6719 7.89277 10.3164L5.15839 7.58203L2.39667 10.3164C2.06855 10.6719 1.52167 10.6719 1.19355 10.3164L0.591984 9.71484C0.236516 9.38672 0.236516 8.83984 0.591984 8.51172L3.32636 5.75L0.591984 3.01562C0.236516 2.6875 0.236516 2.14062 0.591984 1.8125L1.19355 1.21094C1.52167 0.855469 2.06855 0.855469 2.39667 1.21094L5.15839 3.94531L7.89277 1.21094C8.22089 0.855469 8.76777 0.855469 9.09589 1.21094L9.69745 1.8125C10.0529 2.14062 10.0529 2.6875 9.69745 3.01562L6.96308 5.75Z" fill="white"/>
</svg>
