<svg width="37" height="33" viewBox="0 0 37 33" fill="none" xmlns="http://www.w3.org/2000/svg">
<path d="M33.125 16.5C34.9531 16.5 36.5 18.0469 36.5 19.875V28.875C36.5 30.7734 34.9531 32.25 33.125 32.25H24.125C22.2266 32.25 20.75 30.7734 20.75 28.875V12C20.75 5.8125 25.7422 0.75 32 0.75H32.5625C33.4766 0.75 34.25 1.52344 34.25 2.4375V5.8125C34.25 6.79688 33.4766 7.5 32.5625 7.5H32C29.4688 7.5 27.5 9.53906 27.5 12V16.5H33.125ZM12.875 16.5C14.7031 16.5 16.25 18.0469 16.25 19.875V28.875C16.25 30.7734 14.7031 32.25 12.875 32.25H3.875C1.97656 32.25 0.5 30.7734 0.5 28.875V12C0.5 5.8125 5.49219 0.75 11.75 0.75H12.3125C13.2266 0.75 14 1.52344 14 2.4375V5.8125C14 6.79688 13.2266 7.5 12.3125 7.5H11.75C9.21875 7.5 7.25 9.53906 7.25 12V16.5H12.875Z" fill="#252525" fill-opacity="0.1"/>
</svg>
