<svg width="32" height="32" viewBox="0 0 32 32" fill="none" xmlns="http://www.w3.org/2000/svg">
<g clip-path="url(#clip0_3_1114)">
<path d="M22.0128 24.5379L21.7139 24.239L21.3695 24.4839C19.6745 25.689 17.7191 26.4771 15.6621 26.7839C13.6052 27.0908 11.5049 26.9078 9.53199 26.2499C7.5591 25.592 5.76935 24.4777 4.3083 22.9977C2.84726 21.5177 1.75617 19.7137 1.12378 17.7325C0.49139 15.7512 0.335556 13.6487 0.66895 11.5959C1.00234 9.54311 1.81555 7.59799 3.04244 5.91873C4.26932 4.23947 5.87524 2.87351 7.72958 1.93193C9.58392 0.990344 11.6343 0.499735 13.714 0.5L13.7142 0.5C16.14 0.499529 18.5191 1.16679 20.5908 2.42868C22.6625 3.69056 24.3469 5.49836 25.4594 7.65399C26.5719 9.80962 27.0696 12.2299 26.8979 14.6496C26.7262 17.0693 25.8918 19.395 24.486 21.372L24.2411 21.7164L24.54 22.0153L30.9733 28.4486C31.2968 28.7851 31.4757 29.2349 31.4716 29.7017C31.4676 30.1699 31.2798 30.6178 30.9487 30.9489C30.6176 31.28 30.1697 31.4678 29.7015 31.4718C29.2347 31.4759 28.7849 31.297 28.4484 30.9735L22.0128 24.5379ZM6.89555 6.89576C5.08717 8.70414 4.07123 11.1568 4.07123 13.7143C4.07123 16.2717 5.08717 18.7244 6.89555 20.5328C8.70394 22.3412 11.1566 23.3571 13.7141 23.3571C16.2715 23.3571 18.7242 22.3412 20.5326 20.5328C22.341 18.7244 23.3569 16.2717 23.3569 13.7143C23.3569 11.1568 22.341 8.70414 20.5326 6.89576C18.7242 5.08737 16.2715 4.07143 13.7141 4.07143C11.1566 4.07143 8.70394 5.08737 6.89555 6.89576Z" fill="#14646E" stroke="#14646E"/>
</g>
<defs>
<clipPath id="clip0_3_1114">
<rect width="32" height="32" fill="white"/>
</clipPath>
</defs>
</svg>
