<svg width="64" height="64" viewBox="0 0 64 64" fill="none" xmlns="http://www.w3.org/2000/svg">
<path d="M24 45.3333C24 45.3333 42.6667 48 50.6667 56H53.3333C54.0406 56 54.7189 55.7191 55.219 55.219C55.7191 54.7189 56 54.0406 56 53.3333V37.1653C57.146 36.8707 58.1615 36.2033 58.8866 35.2681C59.6117 34.333 60.0053 33.1833 60.0053 32C60.0053 30.8167 59.6117 29.667 58.8866 28.7319C58.1615 27.7967 57.146 27.1293 56 26.8347V10.6667C56 9.95942 55.7191 9.28115 55.219 8.78105C54.7189 8.28095 54.0406 8 53.3333 8H50.6667C42.6667 16 24 18.6667 24 18.6667H13.3333C11.9188 18.6667 10.5623 19.2286 9.5621 20.2288C8.5619 21.229 8 22.5855 8 24V40C8 41.4145 8.5619 42.771 9.5621 43.7712C10.5623 44.7714 11.9188 45.3333 13.3333 45.3333H16L18.2379 56.523C18.4872 57.7694 19.5817 58.6667 20.8528 58.6667H21.3333C22.8061 58.6667 24 57.4728 24 56V45.3333ZM29.3333 23.096C31.1547 22.7067 33.4053 22.1627 35.84 21.4507C40.3147 20.1333 46 18.0613 50.6667 14.864V49.1333C46 45.9387 40.312 43.8667 35.84 42.5493C33.6921 41.9216 31.5218 41.3737 29.3333 40.9067V23.096Z" fill="#14646E"/>
</svg>
