<svg width="11" height="18" fill="none" xmlns="http://www.w3.org/2000/svg"><path fill-rule="evenodd" clip-rule="evenodd" d="M1.2.072C1.045.132.927.225.596.554.088 1.058.02 1.178.017 1.56c0 .205.018.32.067.422.045.095 1.175 1.247 3.51 3.579L7.04 8.999l-3.448 3.439C.909 15.112.127 15.91.071 16.034a.943.943 0 00-.071.387c0 .36.102.539.592 1.023.345.34.446.42.617.484a.945.945 0 00.72.001c.196-.07.38-.248 4.341-4.194 4.576-4.558 4.316-4.272 4.316-4.736 0-.463.26-.177-4.316-4.736C2.307.316 2.125.14 1.93.07a.98.98 0 00-.73.003z" fill="gray"/></svg>