<svg width="38" height="38" fill="none" xmlns="http://www.w3.org/2000/svg"><path fill-rule="evenodd" clip-rule="evenodd" d="M14.11 4.213c0 3.96-.008 4.23-.137 4.47a1.49 1.49 0 01-.34.407c-.197.146-.326.152-4.525.188l-4.323.037-.02 5.325-.018 5.326h2.176c2.31 0 2.677.042 3.34.38.535.272 1.124.9 1.403 1.495l.252.537.023 2.5.023 2.498.507.154c.933.283 1.688 1.008 2.056 1.974.102.27.14.552.136 1.039-.009 1.137-.102 1.299-2.246 3.93l-1.063 1.302h19.344l.288-.162c.184-.103.343-.273.438-.468.142-.294.148-.459.148-3.735v-3.428H25.2c-6.537 0-7.214-.025-8.003-.296-1.3-.447-2.38-1.56-2.845-2.927l-.204-.6V12.804l.173-.556c.432-1.392 1.403-2.437 2.8-3.014l.52-.215 6.948-.037 6.947-.037.02-4.002c.018-3.877.014-4.011-.13-4.31a1.093 1.093 0 00-.439-.47L30.698 0H14.11v4.213zM8.65 3.86L5.454 7.05h6.427V3.86c0-1.756-.008-3.192-.019-3.192-.01 0-1.456 1.436-3.213 3.192zm9.177 7.476c-.485.172-1.127.838-1.307 1.357-.135.386-.142.683-.142 5.751 0 6.189-.038 5.839.7 6.575.76.759-.107.7 10.186.7h8.954l.415-.195a2.484 2.484 0 001.164-1.126l.204-.387V12.878l-.204-.388a2.596 2.596 0 00-1.043-1.078l-.313-.167-9.14-.013c-8.197-.012-9.175-.002-9.474.104zm4.57 3.646c.45.214.968.698 1.174 1.097.171.334.292 1.042.235 1.385-.22 1.331-1.284 2.13-2.837 2.13h-.542v1.067c0 1.04-.004 1.07-.187 1.253-.222.222-.43.274-.76.188-.499-.129-.499-.13-.525-3.394-.012-1.615-.001-3.082.025-3.26.028-.195.118-.396.224-.502.172-.171.208-.176 1.462-.176 1.258 0 1.294.005 1.73.212zm6.294.069c.816.401 1.386 1.161 1.654 2.203.133.519.15 1.647.03 2.207-.221 1.046-.89 1.95-1.76 2.378-.468.23-.523.239-1.712.283-.676.024-1.303.03-1.394.013-.245-.047-.457-.277-.545-.591-.084-.302-.112-5.769-.032-6.17a.992.992 0 01.238-.423l.193-.192 1.417.024 1.416.024.495.244zm6.5-.102c.172.147.21.24.21.512 0 .622-.34.793-1.58.793h-.761v1.411h.86c.852 0 .862.002 1.077.217.16.16.218.287.218.487 0 .617-.287.78-1.365.78h-.778l-.025 1.247c-.028 1.398-.088 1.593-.526 1.706-.33.086-.538.034-.76-.188l-.188-.187v-6.54l.2-.208.2-.209h1.505c1.484 0 1.508.003 1.714.18zm-14.764 2.002c0 .382.022.804.049.936l.048.241.586-.034c.675-.039.908-.165 1.129-.608.119-.239.127-.323.054-.565a1.173 1.173 0 00-.312-.475c-.207-.174-.287-.191-.89-.191h-.664v.696zm5.97.584c.027.704.049 1.69.049 2.19v.909h.627c.345 0 .72-.036.836-.079.3-.113.602-.422.83-.849.181-.342.197-.44.197-1.262 0-.83-.015-.92-.214-1.325-.16-.324-.3-.488-.553-.649-.317-.2-.391-.215-1.08-.215h-.74l.048 1.28zM3.21 22.338c-.473.288-.468.243-.468 3.928v3.338l-1.113.024-1.113.024-.233.232c-.34.34-.375.778-.092 1.187.116.168 1.394 1.762 2.841 3.542 2.807 3.453 2.82 3.466 3.375 3.358.13-.026.307-.104.394-.175.168-.136 5.215-6.338 5.504-6.763a.82.82 0 00.002-.98c-.264-.391-.423-.436-1.558-.437l-1.022-.001v-3.359c0-3.237-.006-3.367-.15-3.604-.273-.447-.369-.46-3.396-.46-2.58.001-2.746.01-2.97.146z" fill="#fff"/></svg>