<svg width="44" height="44" fill="none" xmlns="http://www.w3.org/2000/svg"><rect width="44" height="44" rx="4" fill="#fff"/><path d="M18.37 23.389l3.854-4.772v-3.854l-3.854 4.772-4.864-6.057c-.918-1.193-1.193-1.744-1.56-2.478H8l1.744 1.927V23.94c0 2.753 3.395 4.68 3.395 4.68-.734-1.744-.734-3.671-.734-3.946v-8.902l5.965 7.617z" fill="#030303"/><path d="M30.21 19.26c.918-.643 2.387-1.744 2.387-3.855 0-1.652-1.193-4.405-5.69-4.405h-3.946c.275.55.642 1.468.642 4.68v7.984c0 1.01-.091 3.12-.642 5.048h3.304v-9.27c7.066 2.662 6.424 9.361 2.202 11.93-5.047 3.03-12.205 2.02-15.234-2.66 2.662 6.699 11.38 8.534 17.712 4.772 5.69-3.396 6.607-10.737-.734-14.225zm-4.037-.093V12.56c1.927.184 3.487 1.01 3.487 3.028 0 2.02-1.56 3.12-3.487 3.58z" fill="#030303"/></svg>