<svg width="12" height="12" fill="none" xmlns="http://www.w3.org/2000/svg"><path fill-rule="evenodd" clip-rule="evenodd" d="M.884.022C.468.092.093.475.023.902c-.03.187-.03 10.006 0 10.193.072.438.444.81.882.882.187.03 10.003.03 10.19 0 .438-.072.81-.444.882-.882.03-.187.03-10.006 0-10.193a1.098 1.098 0 00-.882-.882C10.926-.008 1.049-.006.884.022zm8.667 3.013c.043.02.18.14.303.268l.224.231v.248l-2.396 2.4c-1.318 1.32-2.439 2.427-2.49 2.462-.082.054-.118.062-.282.062-.153 0-.203-.01-.27-.051-.044-.029-.675-.646-1.4-1.373l-1.318-1.32v-.107c0-.081.016-.13.067-.199.1-.137.41-.426.486-.455.166-.064.154-.074 1.334 1.104l1.102 1.1 2.167-2.168c1.192-1.193 2.2-2.184 2.238-2.203.09-.045.14-.045.235 0z" fill="#AEAEAF"/></svg>