<svg width="16" height="12" fill="none" xmlns="http://www.w3.org/2000/svg"><path fill-rule="evenodd" clip-rule="evenodd" d="M1.145.052C.348.245-.153 1.057.048 1.83c.061.235.177.446.334.61.14.145 6.796 4.593 7.04 4.703a1.43 1.43 0 001.192-.016c.297-.14 6.818-4.502 6.983-4.671.779-.795.354-2.142-.757-2.404-.293-.069-13.41-.068-13.695.001zM0 7.01c0 2.529.01 3.69.034 3.805a1.5 1.5 0 001.125 1.132c.294.07 13.334.071 13.66.002a1.493 1.493 0 001.145-1.134c.04-.191.05-7.452.011-7.434-.013.006-1.524 1.011-3.358 2.234C10.783 6.84 9.182 7.89 9.06 7.952c-.345.174-.638.24-1.06.24-.421 0-.714-.066-1.06-.24-.122-.062-1.724-1.113-3.558-2.337A948.734 948.734 0 00.023 3.381C.011 3.375 0 5.008 0 7.01z" fill="#AEAEAF"/></svg>