<svg width="16" height="16" fill="none" xmlns="http://www.w3.org/2000/svg"><path fill-rule="evenodd" clip-rule="evenodd" d="M2.77.042c-.388.084-.463.143-1.477 1.154C.41 2.078.34 2.154.236 2.374c-.17.362-.213.558-.232 1.07-.019.516.024.857.18 1.451.943 3.579 5.167 8.285 9.211 10.261 1.2.586 2.104.841 2.997.844.547.002.823-.053 1.202-.24.244-.12.308-.176 1.188-1.053.986-.982 1.045-1.057 1.17-1.473.064-.219.064-.63 0-.849-.113-.377-.159-.432-1.406-1.683-.658-.66-1.281-1.26-1.385-1.333-.622-.442-1.422-.38-1.943.149-.158.16-.218.254-.327.506-.073.17-.172.361-.219.424-.3.405-.879.663-1.371.611-.734-.078-1.83-.74-2.758-1.665C5.419 8.272 4.756 6.982 4.918 6.23c.075-.35.322-.716.613-.91a2.36 2.36 0 01.333-.174c.326-.139.406-.184.558-.316.522-.455.636-1.306.256-1.91C6.566 2.745 4.402.562 4.138.36a1.81 1.81 0 00-.735-.33 1.426 1.426 0 00-.633.013z" fill="#AEAEAF"/></svg>