<svg width="13" height="16" fill="none" xmlns="http://www.w3.org/2000/svg"><path fill-rule="evenodd" clip-rule="evenodd" d="M5.83.04a3.7 3.7 0 00-2.157 1.174c-.64.698-.97 1.503-1.016 2.47a3.871 3.871 0 001.696 3.391 3.42 3.42 0 001.715.607c1.186.096 2.198-.286 3.014-1.14.646-.676.977-1.412 1.057-2.353.108-1.258-.353-2.43-1.278-3.246C8.265.416 7.715.155 6.958.04a3.923 3.923 0 00-1.128 0zM3.064 7.752C1.686 7.902.732 8.916.287 10.704c-.297 1.192-.374 2.625-.182 3.408.154.63.661 1.268 1.25 1.572.266.138.648.253.966.29.188.023 1.627.03 4.378.024l4.097-.01.259-.073c.96-.271 1.62-.932 1.86-1.865.126-.486.11-1.643-.035-2.556-.32-2.032-1.13-3.251-2.412-3.632-.293-.088-.818-.154-.973-.123-.149.029-.356.143-.826.452-.5.33-.569.368-.943.512a3.176 3.176 0 01-1.206.237c-.429 0-.757-.06-1.19-.22-.408-.149-.426-.158-1.064-.574-.337-.22-.586-.36-.685-.387-.169-.045-.169-.045-.517-.007z" fill="#AEAEAF"/></svg>