<svg width="26" height="43" fill="none" xmlns="http://www.w3.org/2000/svg"><path d="M3.698 0h16.919C23.59 0 26 2.808 26 6.27v35.834c0 .363-.188.69-.475.828a.667.667 0 01-.294.068.718.718 0 01-.545-.262l-8.683-10.13c-3.4 3.908-8.083 9.317-8.586 9.983-.235.412-.712.524-1.066.25a.88.88 0 01-.286-.406.624.624 0 01-.06-.33V4.478c0-1.484-1.032-2.687-2.307-2.687-.424 0-.769-.401-.769-.896S3.274 0 3.7 0z" fill="url(#paint0_linear_332_2022)"/><path d="M3.113 0C1.393 0 0 1.314 0 2.934V6.08h6.008V2.913C6.008 1.293 4.832 0 3.113 0z" fill="#C39D65"/><defs><linearGradient id="paint0_linear_332_2022" x1="38.359" y1="-24.955" x2="6.064" y2="-24.882" gradientUnits="userSpaceOnUse"><stop stop-color="#C39D65"/><stop offset=".333" stop-color="#D5AF76"/><stop offset=".531" stop-color="#EBC389"/><stop offset=".807" stop-color="#CFA870"/><stop offset="1" stop-color="#C39D65"/></linearGradient></defs></svg>