<svg width="56" height="56" fill="none" xmlns="http://www.w3.org/2000/svg"><path d="M28 0L0 27.509 28 56l28-28.491L28 0z" fill="url(#paint0_linear_332_2214)"/><path fill-rule="evenodd" clip-rule="evenodd" d="M24.632 20.037c-.325.096-.54.274-.656.543-.061.142-.07.593-.07 3.559v3.396H21v1.896h2.906v1.852H21v1.895h2.906V36h1.907v-2.822h5.812v-1.895h-5.812V29.43h2.227c1.278 0 2.412-.02 2.662-.047 2.01-.218 3.653-1.599 4.18-3.515.104-.379.118-.512.118-1.155 0-.644-.014-.777-.118-1.156-.527-1.916-2.17-3.297-4.18-3.515-.498-.054-5.89-.059-6.07-.006zm6.153 1.921c1.06.215 1.977 1.08 2.223 2.094.088.367.088.956 0 1.323-.187.77-.78 1.491-1.52 1.845-.64.306-.717.314-3.348.314l-2.327.001v-5.643h2.327c1.866.001 2.39.014 2.645.066z" fill="#2E2E2F"/><defs><linearGradient id="paint0_linear_332_2214" x1="-30" y1="-32.5" x2="48.39" y2="-32.17" gradientUnits="userSpaceOnUse"><stop stop-color="#C39D65"/><stop offset=".333" stop-color="#D5AF76"/><stop offset=".531" stop-color="#EBC389"/><stop offset=".807" stop-color="#CFA870"/><stop offset="1" stop-color="#C39D65"/></linearGradient></defs></svg>