<svg width="56" height="56" fill="none" xmlns="http://www.w3.org/2000/svg"><path d="M28 0L0 27.509 28 56l28-28.491L28 0z" fill="url(#paint0_linear_332_2208)"/><path fill-rule="evenodd" clip-rule="evenodd" d="M27.683 20.014a.814.814 0 00-.253.1c-.066.043-1.502 1.38-3.192 2.972-2.42 2.281-3.09 2.928-3.154 3.052a.979.979 0 00-.003.785c.163.343.515.554.924.556.457.001.377.063 2.488-1.907 1.663-1.551 1.902-1.764 2.013-1.783a.398.398 0 01.392.143c.064.084.066.185.075 5.7l.009 5.613.087.174c.12.24.268.387.491.49.252.116.604.122.861.014a1.09 1.09 0 00.521-.49l.077-.157.017-5.633c.013-4.496.025-5.648.06-5.704.084-.14.328-.204.485-.13.04.02.922.828 1.96 1.796 2.102 1.962 1.996 1.88 2.455 1.876a.98.98 0 00.728-.291.884.884 0 00.274-.661c0-.424.207-.204-3.233-3.433-2.22-2.083-3.154-2.94-3.271-3-.128-.065-.22-.085-.42-.094-.142-.005-.318 0-.391.012z" fill="#2E2E2F"/><defs><linearGradient id="paint0_linear_332_2208" x1="-30" y1="-32.5" x2="48.39" y2="-32.17" gradientUnits="userSpaceOnUse"><stop stop-color="#C39D65"/><stop offset=".333" stop-color="#D5AF76"/><stop offset=".531" stop-color="#EBC389"/><stop offset=".807" stop-color="#CFA870"/><stop offset="1" stop-color="#C39D65"/></linearGradient></defs></svg>