<svg width="20" height="26" fill="none" xmlns="http://www.w3.org/2000/svg"><path fill-rule="evenodd" clip-rule="evenodd" d="M3.722.045C1.49.42-.096 2.383.04 4.605c.08 1.326.708 2.478 1.788 3.287.435.325 1.442.768 1.536.675.017-.018-.051-.336-.152-.708-.1-.372-.198-.752-.216-.844-.023-.12-.093-.208-.247-.315-.308-.21-.69-.646-.879-1-.225-.42-.322-.828-.324-1.35-.003-.796.263-1.427.84-1.997.593-.585 1.2-.837 2.017-.837.82 0 1.426.253 2.012.837.632.631.852 1.203.83 2.162-.01.416.006.62.055.708.038.067.189.49.336.938l.267.814.19-.296c.242-.378.407-.752.548-1.242.093-.322.111-.512.109-1.1-.004-.62-.022-.77-.14-1.16C8.099 1.498 6.763.323 5.052.046a4.951 4.951 0 00-1.33 0zm.743 4.007c-.316.108-.443.213-.59.488-.093.173-.108.284-.105.737.007.89.15 1.455 1.497 5.945 1.482 4.937 1.589 5.327 1.706 6.234.043.341-.057.558-.345.745-.36.232-.663.302-1.412.325-.592.018-.817-.001-1.626-.135-1.742-.29-2.393-.185-3.094.496-.34.33-.493.674-.496 1.11-.002.43.082.58.435.777.209.116.292.127 1.264.164 1.561.058 2.655.276 3.637.722.444.203 1.15.641 1.895 1.18 1 .724 1.36.914 2.801 1.487.507.202 1.068.451 1.247.555.378.218.91.729 1.01.967.037.09.085.158.107.15l3.66-1.386 3.62-1.372-.038-.28c-.065-.471-.024-.924.172-1.943.184-.956.189-1.007.19-2.173.001-1.359-.065-1.87-.435-3.354-.583-2.343-1.415-4.029-2.551-5.174-.744-.75-1.516-1.107-1.999-.924-.074.028-.264.174-.423.324a2.97 2.97 0 01-.403.332c-.145.075-.23.032-.667-.339-.574-.486-.967-.58-1.459-.349-.336.159-.468.309-.713.809-.249.51-.347.548-.687.264-.423-.352-.764-.44-1.288-.332-.514.107-.72.364-.8 1.005-.062.486-.089.573-.178.573-.214 0-.465-.714-1.215-3.458-.456-1.668-.721-2.446-1.056-3.101-.488-.956-1.01-1.292-1.66-1.07z" fill="#fff"/></svg>