<svg width="56" height="56" fill="none" xmlns="http://www.w3.org/2000/svg"><path d="M28 0L0 27.509 28 56l28-28.491L28 0z" fill="url(#paint0_linear_332_2221)"/><path fill-rule="evenodd" clip-rule="evenodd" d="M22.077 20.052c-1.19.22-2.169.978-2.7 2.088-.877 1.836-.175 4.058 1.587 5.024a3.686 3.686 0 003.412.041 3.825 3.825 0 001.987-2.713 4.81 4.81 0 00.004-1.361c-.279-1.587-1.507-2.824-3.064-3.084a3.799 3.799 0 00-1.226.005zm12.268-.009a1.439 1.439 0 00-.299.16c-.085.06-3.195 3.23-6.912 7.044-5.512 5.656-6.773 6.967-6.841 7.114-.121.261-.12.718.002.974.11.23.321.446.546.558.249.126.695.127.95.003.143-.07 1.425-1.366 7.004-7.083 5.561-5.699 6.844-7.031 6.913-7.178.068-.146.083-.239.083-.487 0-.262-.014-.336-.097-.51a1.163 1.163 0 00-.55-.545c-.201-.092-.599-.117-.799-.05zm-11.193 2.33c.307.097.587.311.764.582.196.302.259.539.243.927-.01.26-.03.353-.124.555a1.514 1.514 0 01-.706.724c-.222.108-.262.115-.624.115-.364 0-.4-.007-.618-.116a1.624 1.624 0 01-.705-.745c-.32-.7-.037-1.562.633-1.928a1.41 1.41 0 011.137-.114zm9.596 6.046a3.795 3.795 0 00-2.912 2.355c-.208.541-.236.715-.234 1.442.002.62.008.69.098.992.053.178.158.457.233.62.892 1.924 3.155 2.722 5.014 1.77 1.963-1.006 2.655-3.568 1.474-5.448a3.71 3.71 0 00-2.389-1.687c-.294-.063-1.015-.088-1.283-.044zm.976 2.337c.437.134.827.538.965 1.001.3 1.016-.511 2.024-1.55 1.924-.473-.045-.958-.395-1.174-.85-.107-.223-.113-.26-.113-.633 0-.358.009-.417.097-.61.181-.396.42-.628.823-.798.246-.104.672-.119.952-.034z" fill="#2E2E2F"/><defs><linearGradient id="paint0_linear_332_2221" x1="-30" y1="-32.5" x2="48.39" y2="-32.17" gradientUnits="userSpaceOnUse"><stop stop-color="#C39D65"/><stop offset=".333" stop-color="#D5AF76"/><stop offset=".531" stop-color="#EBC389"/><stop offset=".807" stop-color="#CFA870"/><stop offset="1" stop-color="#C39D65"/></linearGradient></defs></svg>