<svg width="100" height="94" fill="none" xmlns="http://www.w3.org/2000/svg"><path fill-rule="evenodd" clip-rule="evenodd" d="M47.276.03c-1.555.14-2.966.557-4.238 1.254-2.564 1.406-3.488 3.449-3.004 6.645.165 1.09.67 3.177 1.094 4.522.116.368.211.68.211.693 0 .014-.072.04-.16.057-.242.048-.414.184-.573.451-.133.226-.143.286-.14.825.002.604.068 1.09.24 1.78.057.224.138.77.181 1.215.112 1.15.172 1.44.33 1.597a.764.764 0 00.229.162c.134.042.15.39.184 4.146.023 2.466.047 3.222.107 3.508.08.374.312.924.504 1.192.17.237.141.307-.145.347-2.464.34-5.273 1.083-7.762 2.053-.42.163-.774.288-.786.277a54.835 54.835 0 01-.606-1.388c-.72-1.681-.72-1.668-.05-2 .385-.193.849-.664 1.041-1.06.135-.277.206-.352.525-.555.47-.299 1.38-1.165 1.782-1.696.796-1.05 1.169-2.235 1.169-3.709-.001-1.84-.62-3.506-1.739-4.686a4.816 4.816 0 00-1.528-1.111c-1.126-.545-2.372-.685-3.848-.435-.448.076-.45.076-.542-.045-.098-.128-.178-.097-.212.084-.014.074-.138.134-.496.242-1.57.469-2.385 1.076-3.475 2.59-.48.668-1.204 1.585-1.25 1.585-.01 0-.36-.368-.779-.818-.7-.752-.95-.947-.95-.744 0 .041.207.552.458 1.135.252.583.444 1.094.429 1.135-.037.095-.553.396-.94.549-.16.064-.687.234-1.17.378-1.525.455-2.164.784-2.395 1.23-.113.22-.115.245-.053.939.113 1.283.328 2.948.432 3.355.122.472.355.843.786 1.252a4.55 4.55 0 001.917 1.07c.884.227 1.933.202 3.989-.098l1.195-.174.266.231a2.694 2.694 0 002.681.517c.532-.186.595-.11 1.295 1.548.31.735.565 1.353.565 1.375 0 .021-.182.128-.405.237-1.337.659-2.827 1.717-3.943 2.802-2.282 2.219-3.232 4.555-4.281 10.532-.937 5.335-1.456 9.664-1.602 13.35-.032.814-.05.936-.188 1.295-.383.998-.54 1.838-.536 2.879.012 3.166 1.56 5.53 4.201 6.415.684.229 1.065.285 1.92.284.717-.001.892-.02 1.346-.14.288-.076.777-.26 1.089-.41l.566-.273.877-.047c.826-.044 2.647-.227 2.907-.291.146-.037.145-.073.04 1.09a22.5 22.5 0 00-.079 1.094v.221l.672.355c8.734 4.608 19.378 5.078 28.671 1.265.468-.192 1.43-.636 2.138-.987 1.2-.595 1.288-.647 1.285-.778a48.069 48.069 0 00-.094-1.209c-.051-.588-.085-1.07-.076-1.07.01 0 .405.047.879.104 1.004.12 2.145.213 2.632.213.309 0 .403.03.933.29 1.804.883 3.79.768 5.681-.33.584-.339 1.501-1.25 1.854-1.84 1.128-1.89 1.365-4.387.617-6.503-.242-.683-.215-.464-.395-3.29-.196-3.062-.489-5.511-1.146-9.561-.693-4.275-1.168-6.438-1.79-8.161-.363-1.007-.659-1.614-1.328-2.727-.081-.134-.076-.148.187-.501.148-.2.483-.685.745-1.077a33.163 33.163 0 005.138-12.996c.174-1.057.351-2.603.304-2.649-.05-.048-4.389-1.93-6.402-2.777l-1.602-.673h-.478c-.413.002-.514.02-.748.143-.345.18-.576.442-.8.91-.097.206-.844 2.358-1.658 4.784-1.168 3.476-2.505 7.286-3.079 8.773l-.052.137-1.452-.483c-1.493-.498-2.276-.72-3.439-.98a35.725 35.725 0 00-2.567-.452c-.168-.019-.306-.044-.306-.056 0-.012.084-.147.186-.3.442-.66.504-1.08.505-3.39 0-3.093.06-5.415.137-5.415.136 0 .393-.276.449-.482.03-.115.102-.642.157-1.17.056-.53.163-1.224.24-1.544.145-.61.234-1.783.163-2.16-.06-.324-.485-.719-.772-.719-.06 0-.109-.025-.109-.057 0-.031.082-.324.181-.65.742-2.434.804-4.98.151-6.174-.25-.456-.786-.849-1.353-.991l-.238-.06-.08-.405c-.276-1.388-1.268-2.612-2.803-3.456C53.977.774 52.375.313 50.633.105c-.807-.097-2.652-.138-3.357-.075zm1.605 3.301c.495.328 1.217 1.017 1.623 1.55.353.464.782 1.265.847 1.582.05.242-.082.434-.297.434-.394 0-.59-.253-.854-1.097-.272-.874-.757-1.598-1.55-2.312-.224-.201-.407-.387-.407-.412 0-.09.294.028.638.255zm-3.142.03c1.319.305 2.419.876 3.25 1.687.855.835 1.026 1.397.493 1.618-.386.16-.636-.019-1.283-.922-.93-1.298-1.816-1.949-3.153-2.317-.283-.078-.5-.164-.484-.19.04-.065.626-.003 1.177.124zm-2.137 2.376c.49.167 1.035.599 1.152.91.036.097-.122.303-.232.303-.063 0-.226-.166-.548-.552-.27-.325-.523-.487-.992-.635-.213-.067-.35-.134-.31-.152.118-.05.614.018.93.126zm4.303 1.188c.259.045.913.211 1.454.37 1.397.412 1.613.452 2.62.484 1.342.044 2.123-.092 3.273-.57.58-.241.711-.237.978.028.422.42.634 1.265.636 2.538.002.869-.046 1.247-.242 1.918l-.113.386.296.301c.286.29.585.72.722 1.033.06.138.057.148-.03.112-1.135-.472-2.134-.448-3.224.078-.601.29-.645.304-1.506.477-.83.167-1.191.312-1.363.546-.102.139-.11.235-.125 1.451-.008.716-.002 1.356.015 1.422.077.309.899.013 1.113-.4.04-.077.1-.318.133-.536.092-.597.358-.92.915-1.113.185-.064.201-.06.355.093.474.472 1.259.47 1.705-.007.106-.113.16-.132.292-.104.23.048.75.27.995.424l.208.131-.036-.2c-.051-.28-.256-.667-.489-.924l-.197-.218.212.037c.398.07.864.337 1.096.63.206.258.214.283.181.536-.1.756-.602 1.856-1.412 3.092-.2.305-.425.692-.5.86-.245.553-.367 1.643-.243 2.176.027.115.04.22.027.231-.012.012-.167-.032-.345-.098-.3-.112-.59-.29-1.739-1.07-.502-.343-.988-.514-1.452-.514-.172 0-.313-.02-.313-.043 0-.024.07-.11.155-.191.162-.154.307-.434.253-.487-.017-.017-.242.053-.499.155-.66.263-.978.32-1.59.29-.512-.027-.683-.073-1.544-.417-.093-.038-.185-.054-.203-.036-.045.045.154.418.289.539.17.153.137.19-.17.19-.576 0-1.064.211-1.896.82-.494.362-1.293.8-1.635.897-.116.032-.119.025-.08-.195.07-.387.036-1.362-.06-1.725-.13-.49-.287-.803-.77-1.54-.613-.936-1.038-1.808-1.207-2.48-.134-.534-.136-.556-.046-.721.23-.426.769-.805 1.265-.89l.202-.035-.235.287c-.22.27-.36.557-.432.892l-.03.143.385-.204a4.9 4.9 0 01.69-.298l.303-.093.113.142c.373.472 1.206.5 1.679.056.198-.186.204-.188.414-.12.522.172.838.58.906 1.169.02.181.07.393.11.472.144.277.589.517.959.517h.178v-1.391c0-1.356-.003-1.397-.12-1.572-.175-.262-.512-.402-1.4-.58-.63-.126-.906-.212-1.356-.42-.715-.33-1.06-.423-1.692-.458a2.884 2.884 0 00-1.482.278c-.158.072-.298.12-.312.105-.084-.083.379-.823.773-1.238l.27-.285-.151-.454a4.84 4.84 0 01-.105-2.683c.237-.923.81-1.581 1.602-1.843.681-.225 1.775-.29 2.572-.153zm-15.187 7.74c.55.075 1.288.323 1.722.578.664.39 1.423 1.21 1.793 1.938.187.367.374 1 .432 1.464.172 1.375-.569 2.986-1.79 3.896-.495.368-1.52.901-2.355 1.226-1.52.59-3.1.942-5.707 1.27-2.055.258-2.696.31-3.797.312-1.189 0-1.591-.065-2.17-.357-.763-.384-1.408-1.498-1.411-2.436-.001-.3.027-.428.145-.668.254-.517.534-.662 1.92-.993.938-.224 1.343-.361 1.926-.653a4.94 4.94 0 01.41-.193c.05 0 .245.498.22.563-.014.036-.15.136-.3.222l-.275.156-.012.758c-.017 1.025-.192 1.75-.632 2.618-.106.21-.193.397-.193.416 0 .018.388.022.863.008.7-.02.96-.051 1.383-.162 1.258-.33 2.409-1.162 3.072-2.22l.128-.205-.154-.456c-.29-.859-.237-1.738.15-2.514.103-.204.176-.325.162-.267-.188.794-.11 1.738.188 2.296.095.179.102.182.135.066.077-.267.39-.845.599-1.106.221-.278.713-.7.814-.7.082 0 .011.31-.247 1.082-.46 1.378-1.212 2.667-2.15 3.684l-.28.304h.161c.263 0 1.532-.249 2.144-.42.71-.199 1.52-.516 2.14-.838.414-.214.507-.29.701-.564a4.5 4.5 0 00.826-2.075c.037-.27.09-.496.118-.502.09-.02.245.493.274.908.02.297.002.5-.073.784-.055.21-.085.383-.067.383.018 0 .175-.085.347-.188a4.751 4.751 0 002.005-2.335c.133-.336.166-.508.186-.964.03-.691-.038-1.037-.319-1.6-.425-.851-1.3-1.536-2.245-1.757-.733-.171-1.922-.091-2.706.183-.174.06-.332.093-.35.071a3.693 3.693 0 01-.185-.4c-.18-.429-.191-.415.448-.532.806-.148 1.352-.17 2.006-.08zm-3.106 1.03c.022.587.017.621-.127.905-.082.162-.151.357-.154.433a1.28 1.28 0 01-.046.27c-.039.126-.045.122-.153-.106-.21-.444-.122-.907.242-1.28l.192-.195-.208.056c-.53.145-1.3.578-1.653.929-.111.11-.474.555-.808.988-.66.858-1.523 1.879-1.589 1.879-.022 0-.121-.083-.22-.183l-.178-.183.553-.57a15.073 15.073 0 001.428-1.679c.419-.58.838-.955 1.52-1.362.329-.197 1.01-.508 1.117-.511.04-.001.068.204.084.608zm1.478 1.632c-.062.1-.186.243-.273.316-.21.176-.687.313-.911.262-.171-.038-.17-.039.132-.13a2.16 2.16 0 00.944-.55c.214-.22.274-.165.108.102zm42.779.338c.324.18.58.534.667.923.12.536-.172 1.148-.678 1.422-.363.196-.668.232-1.048.121-.413-.119-.783-.48-.902-.877-.103-.348-.104-.489-.005-.82.13-.436.476-.761.984-.926.23-.076.697 0 .982.158zm5.285 2.538c0 .026-.07.424-.158.885-.88 4.678-2.566 8.932-5.112 12.906-.472.738-1.326 1.962-1.35 1.938-.01-.01.463-1.806 1.049-3.992.586-2.187 1.054-3.987 1.04-4.001-.014-.014-1.217.603-2.673 1.37a484.78 484.78 0 01-2.887 1.514l-.24.119.244-.257a430.053 430.053 0 003.448-3.687c.046-.06-.29.088-.797.35-2.394 1.236-3.399 1.739-3.399 1.701 0-.023.125-.351.276-.73.152-.38.494-1.328.76-2.109l.483-1.42 4.618-2.316c2.54-1.274 4.636-2.317 4.658-2.318.022 0 .04.02.04.047zm-53.166.383c-.274.545-.816.89-1.394.889-.407-.002-.47-.075-.13-.15a2.76 2.76 0 001.266-.684c.187-.175.347-.31.357-.301.009.009-.035.12-.099.246zm-4.613.734c-.629.163-1.145.528-1.313.927-.212.505.004 1.203.545 1.768.359.374 1.003.732 1.113.618.14-.144.401-.741.507-1.157.142-.557.117-1.366-.057-1.908-.133-.415-.143-.418-.795-.248zm29.404 1.651c.302.265.553.444.865.613l.282.154-.182.11c-.541.332-1.481.463-2.12.297-.302-.08-.903-.342-.902-.395 0-.016.142-.106.314-.2.172-.095.44-.287.596-.428.334-.302.365-.316.696-.322.213-.003.283.023.451.171zm-7.478 2.163c.669 1.821 1.52 3.19 2.853 4.581.244.255.443.48.443.5 0 .18-1.028-.522-1.615-1.1a6.66 6.66 0 01-1.868-3.51c-.082-.42-.1-.96-.034-.96.023 0 .122.22.22.489zm2.6 2.207c.405.897.88 1.735 1.554 2.738.32.475.573.873.562.883-.04.04-.564-.433-.897-.812a6.832 6.832 0 01-1.453-2.74c-.24-.921-.16-.944.234-.069zm-40.311.544c-.293.08-.622.311-.849.595-.36.45-.34.284-.34 2.9v2.377l.149.303c.167.338.46.607.864.791.396.181 1.009.168 1.403-.03.397-.2.621-.424.803-.8l.153-.317v-4.605l-.161-.321a1.815 1.815 0 00-.786-.801c-.268-.136-.904-.183-1.236-.092zm92.312-.022c-.306.063-.61.248-.85.517-.438.49-.422.375-.423 3.026v2.35l.124.265c.148.314.53.679.874.834.349.157 1 .157 1.349 0 .35-.158.75-.548.899-.876l.125-.275v-4.649l-.14-.265c-.162-.304-.603-.737-.861-.844-.214-.089-.841-.136-1.097-.083zm-96.732.121c-.122.032-.324.166-.51.336-.394.363-.585.767-.627 1.327-.04.512-.004.544.605.544.479 0 .55-.043.55-.341 0-.18.135-.499.274-.646a.468.468 0 01.57-.098c.45.231.43 1.02-.048 1.825-.112.188-.554.842-.983 1.452-.994 1.415-.997 1.423-1 1.963-.003.283.02.46.067.515.061.074.27.084 1.673.084 1.175 0 1.62-.017 1.666-.063.04-.04.064-.235.064-.518 0-.283-.024-.478-.064-.518-.043-.042-.29-.063-.757-.064-.676 0-.923-.049-.97-.19-.01-.032.32-.567.734-1.188.414-.622.81-1.258.88-1.414.337-.75.366-1.505.08-2.084-.22-.442-.595-.793-.968-.903-.312-.092-.922-.101-1.236-.019zm92.27-.018c-.565.185-1.015.736-1.161 1.422-.082.387-.075.622.024.72.106.106.937.12 1.017.017.029-.036.079-.204.112-.373.074-.379.22-.591.46-.67.376-.123.692.187.689.677-.005.63-.123.843-1.855 3.34l-.475.686-.022.5c-.016.35-.003.526.043.581.056.067.31.079 1.667.078.916 0 1.634-.022 1.68-.05.114-.073.114-.987 0-1.06-.045-.027-.38-.052-.744-.055-.777-.008-.924-.037-.946-.193-.01-.074.223-.468.683-1.154 1.03-1.533 1.196-1.933 1.157-2.789-.024-.524-.192-.922-.532-1.26-.341-.339-.566-.425-1.159-.444-.277-.01-.564.003-.638.027zm-87.159 1.14c.318.163.33.254.313 2.35-.016 1.83-.02 1.902-.127 2.046a.607.607 0 01-.307.198c-.162.041-.22.031-.34-.057-.295-.217-.303-.272-.321-2.094-.019-1.907.01-2.175.263-2.386.183-.153.306-.166.52-.057zm92.324.077l.173.154.017 1.972c.015 1.765.007 1.99-.073 2.14-.175.33-.612.358-.841.053-.108-.144-.112-.215-.128-2.007-.018-1.995 0-2.172.237-2.357.197-.154.409-.138.615.045zm-50.544 3.03c.232.119.929.287 1.456.352 1.217.15 2.6-.04 3.501-.483.245-.12 1.165-.696 2.045-1.28.879-.582 1.62-1.069 1.647-1.08.084-.036-.391.796-.704 1.231a6.838 6.838 0 01-2.57 2.162c-.947.46-1.018.577-1.034 1.694-.01.773-.013.79-.145.898-.074.06-.2.252-.28.427-.14.307-.145.346-.147 1.267-.002.914-.007.96-.135 1.187-.408.726-2.113.823-2.68.153-.198-.235-.24-.473-.24-1.37 0-.929-.069-1.263-.317-1.544-.152-.172-.152-.172-.147-.884.01-1.206-.074-1.352-1.062-1.847-.386-.194-.879-.487-1.095-.652-.476-.362-1.143-1.047-1.475-1.513-.27-.38-.703-1.123-.76-1.307-.028-.088.48.22 1.97 1.194 1.105.722 2.083 1.35 2.172 1.396zm-5.64-1.48c.163 1.135.26 1.611.4 1.974.55 1.417 1.977 2.783 3.816 3.65.853.403.999.614.938 1.358-.04.488.038 1.06.204 1.504.208.556.744.963 1.513 1.15.497.12 1.572.118 2.032-.003 1.274-.334 1.7-.957 1.7-2.485 0-.997.042-1.063 1.015-1.553 1.78-.896 2.945-1.952 3.582-3.248.249-.505.415-1.131.52-1.964l.067-.529.475.012c.261.006.645.025.854.043l.379.032.034.485c.079 1.097.136 2.898.136 4.303.001 1.443-.077 3.93-.133 4.27-.025.149-.078.19-.541.412-1.328.639-2.043 1.467-2.512 2.91-.066.203-.124.374-.128.38-.018.024-2.411.227-3.377.285-2.184.134-5.65.075-8.179-.139-1.438-.121-1.307-.075-1.435-.505-.193-.644-.646-1.468-1.04-1.891a5.22 5.22 0 00-1.653-1.136l-.376-.15-.045-.773c-.102-1.743-.024-8.312.1-8.435.01-.01.34-.04.734-.067l.805-.054c.064-.006.098.042.115.164zm-4.62 2.112c.02.908.06 2.103.089 2.655.056 1.077.246 3.48.297 3.763.025.144.014.172-.069.172-.077 0-.203-.23-.577-1.062-.569-1.264-.714-1.433-1.319-1.536-.074-.013-.323-.544-1.023-2.182a103.056 103.056 0 01-.954-2.274c-.026-.097.045-.135.674-.36.648-.232 2.508-.775 2.813-.821.018-.003.048.738.068 1.645zm25.883-1.466c.925.243 1.714.497 1.714.55 0 .116-2.81 6.79-2.843 6.754a12.92 12.92 0 01.058-.833c.148-1.728.19-2.576.22-4.582.022-1.461.049-2.073.09-2.073.032 0 .374.083.76.184zm-30.01 3.843l.954 2.232-.133.201c-.246.375-.223.642.132 1.541.248.63.293.791.23.812a15.74 15.74 0 00-.7.336c-1.047.52-1.695 1.076-2.047 1.755-.129.25-.141.335-.177 1.245-.04 1.016-.079 1.23-.368 2.068-.202.586-.206.934-.015 1.528.13.405.144.526.152 1.37.006.534.035.985.069 1.07a4.6 4.6 0 00.325.538c.406.598.487.844.528 1.613.03.554.058.709.175.96l.139.3-.243.28c-.332.385-.748 1.03-1.042 1.615-.135.268-.246.5-.246.515 0 .102.129-.027.377-.377a3.617 3.617 0 011.345-1.146l.4-.2.44.367c1.075.898 2.358 1.537 4.263 2.125a74.12 74.12 0 004.01 1.08c1.942.432 3.279 1.012 4.944 2.147l.493.335-1.139.55c-2.296 1.107-4.918 2.292-6.21 2.805-2.977 1.183-6.8 1.907-9.718 1.84l-.716-.017-.205-.523a8.059 8.059 0 01-.22-5.125c.095-.32.098-.453.011-.453-.123 0-1.042 1-1.37 1.493-.79 1.188-1.175 2.364-1.256 3.834l-.033.6-.164-.032c-.372-.071-.958-.415-1.306-.766-.812-.818-1.077-2.012-.9-4.046.164-1.89.863-3.861 2.019-5.694.452-.718.373-.75-.352-.143-.677.567-.608.577-.608-.086 0-2.033.25-5.01.773-9.184.626-5.007 1.285-7.03 2.892-8.876.452-.52 1.149-1.153 1.791-1.629.397-.293 1.641-1.08 1.72-1.087.017-.001.461 1.002.986 2.23zm34.935-.465c.184.09.431.291.7.571 1.343 1.396 1.711 1.685 2.907 2.285l.738.37.153.396c.367.952.684 2.246.947 3.876.266 1.644.717 5.383.874 7.243.15 1.773.29 4.833.222 4.833-.02 0-.136-.09-.26-.202-.624-.56-.994-.8-.994-.645 0 .028.129.248.287.488.756 1.154 1.473 2.796 1.759 4.028.345 1.486.412 3.328.157 4.313-.228.88-.778 1.58-1.533 1.951-.237.117-.503.217-.59.224l-.16.011-.031-.687c-.064-1.412-.467-2.603-1.278-3.784-.512-.744-1.288-1.52-1.405-1.404-.014.013.035.228.107.477.274.939.373 2.27.24 3.242-.102.758-.507 2.098-.704 2.336-.051.06-.256.068-1.178.04-3.111-.091-6.095-.658-8.763-1.662-1.51-.57-4.187-1.786-8.365-3.802a237.123 237.123 0 00-3.532-1.676c-3.116-1.407-5.46-2.127-7.823-2.402-1.462-.17-2.388-.392-3.583-.86-1.176-.459-2.174-1.1-2.899-1.863-.622-.655-.916-1.308-.805-1.788.108-.462.076-.596-.205-.875-.403-.401-.483-.889-.24-1.455.208-.488.208-.48 0-.78-.397-.575-.343-1.332.134-1.877.182-.207.192-.38.046-.75a1.398 1.398 0 01.188-1.355c.269-.35.67-.416 1.432-.233.495.118.591.158 1.195.49.561.307.952.41 1.548.41 1.04 0 1.776-.334 2.066-.938.105-.219.118-.319.105-.804-.026-.945-.03-.907.105-1.015.247-.199.721.034 1.36.667.806.799.995 1.338 1.057 3.015.043 1.162.118 1.56.403 2.135.705 1.422 2.552 2.394 6.372 3.354 4.227 1.062 6.941 1.48 11.335 1.748 3.073.187 4.662.433 6.097.943.982.349 1.547.742 2.064 1.438.185.247.344.424.354.392.057-.17-.788-1.615-1.218-2.083l-.269-.292.146-.305c.124-.26.15-.4.181-.965.043-.758.142-1.078.483-1.551.353-.49.439-.736.418-1.194-.039-.883-.014-1.189.141-1.697.194-.633.204-1.2.029-1.624-.273-.663-.335-1-.375-2.042-.037-.965-.045-1.016-.194-1.319-.317-.642-1.166-1.349-2.196-1.83l-.467-.218.23-.878c.128-.483.376-1.485.553-2.226.38-1.59.426-1.725.7-2.034.332-.375.697-.422 1.234-.161zM49.888 41.3c-.266.14-.476.475-.476.76 0 .56.573 1.006 1.108.863.665-.178.886-.932.425-1.454-.267-.303-.678-.369-1.057-.17zm10.68.255c.042.077.05.303.024.726-.04.664.006.9.24 1.237.37.539 1.358.843 2.338.72.485-.06.703-.138 1.282-.46.224-.124.539-.27.7-.326.416-.142 1.037-.237 1.27-.193.573.107.984.961.754 1.564-.05.13-.103.34-.117.466-.022.199-.003.256.147.442.23.284.37.668.37 1.012 0 .34-.076.573-.275.848-.183.252-.185.315-.019.673.286.613.207 1.161-.224 1.555-.268.244-.275.277-.198.906.034.277.02.383-.08.66a2.79 2.79 0 01-.23.49l-.116.171a1.354 1.354 0 01-.27-.064c-.719-.211-1.774-.319-3.9-.398-3.978-.148-6.056-.366-8.909-.936-.533-.106-.969-.207-.969-.223 0-.017.335-.131.744-.254 2.178-.655 3.583-1.45 4.278-2.417.502-.7.599-1.067.66-2.509.054-1.262.144-1.736.427-2.265.425-.793 1.305-1.538 1.816-1.538.147 0 .213.029.258.113zm-47.436 22.72c-.456.384-1.328 1.127-1.939 1.65a40.8 40.8 0 01-2.995 2.378c-2.056 1.492-2.496 1.84-2.496 1.97 0 .04.397.565.882 1.165.7.864.912 1.093 1.023 1.105.146.015.051.091 3.195-2.537.652-.545 1.217-.99 1.255-.99.04 0 .071.034.071.076 0 .042-.382 1.59-.85 3.44-.467 1.849-.85 3.413-.85 3.475.001.255 1.454 2.094 1.656 2.094.056 0 1.122-.817 2.37-1.814a158.158 158.158 0 013.543-2.758c2.318-1.716 2.583-1.929 2.565-2.065-.025-.187-1.795-2.228-1.938-2.233-.147-.006-.48.261-2.03 1.629-2.045 1.803-2.36 2.046-2.454 1.897a.337.337 0 01-.046-.15c0-.095.407-1.648 1.242-4.73.339-1.25.616-2.315.616-2.366 0-.1-1.832-1.936-1.93-1.936-.034 0-.435.315-.89.7zm72.409.441c-.475.627-.864 1.184-.864 1.24 0 .097.414.415 3.07 2.363 1.17.857 1.494 1.144 1.399 1.238-.093.091-.962.073-4.57-.099l-2.997-.142-.117.145a6.04 6.04 0 00-.357.576c-.133.237-.411.667-.618.956-.207.289-.377.554-.377.59 0 .09.283.314 2.124 1.685 2.039 1.518 2.348 1.767 4.17 3.353 1.813 1.578 1.904 1.65 2.055 1.629.08-.012.39-.35.96-1.047.462-.567.867-1.084.9-1.149.08-.162.069-.172-1.219-1.157-2.496-1.91-3.22-2.478-3.24-2.54-.03-.088.496-.086 3.544.012 1.33.043 2.724.084 3.099.092l.682.014.368-.396c.502-.54 1.269-1.534 1.269-1.646 0-.057-.833-.759-2.191-1.847-2.304-1.846-2.346-1.88-3.651-3.01-1.696-1.468-2.353-2.001-2.464-2-.084 0-.332.29-.975 1.14zm-63.734 9.393c-1.946.368-3.432 1.525-4.345 3.381-.47.957-.635 1.853-.544 2.953.166 1.994 1.351 3.618 3.307 4.53.76.353 1.205.443 2.18.439.74-.004.917-.022 1.365-.142 1.546-.411 2.712-1.331 3.646-2.878 1.09-1.804 1.044-4.158-.116-5.892-.586-.876-1.727-1.774-2.714-2.135-.818-.3-1.984-.407-2.78-.256zm53.753.578c-.297.242-.78.587-1.075.767-.354.217-.536.36-.536.421 0 .052.061.294.136.54.074.244.613 2.096 1.198 4.115 1.258 4.35 1.783 6.1 1.889 6.304.065.127.1.145.22.115.211-.052.593-.297 1.364-.875.893-.669.982-.756.982-.952 0-.087-.08-.366-.179-.619-.272-.702-.28-.767-.103-.934.354-.335 2.58-1.93 2.692-1.93.082 0 .42.228.75.502.314.261.459.344.606.344.21 0 2.294-1.487 2.48-1.77.047-.072.073-.164.058-.204-.047-.122-2.4-1.666-6.314-4.143-2.724-1.724-3.398-2.125-3.56-2.122-.037 0-.31.2-.608.44zm-52.144 2.386c.861.223 1.6.995 1.78 1.861.084.402.034 1.064-.112 1.483-.148.426-.566 1.05-.89 1.328-.593.512-1.545.804-2.24.687-.503-.084-.933-.302-1.336-.677-.53-.494-.789-1.076-.789-1.78 0-1.038.729-2.174 1.717-2.675.298-.152.92-.302 1.26-.306.161-.001.436.034.61.08zm55.287 1.874c.806.604 1.088.854 1.088.965 0 .176-1.2 1.06-1.4 1.03-.084-.012-.147-.126-.287-.517-.222-.621-.703-2.195-.703-2.302 0-.103.4.15 1.302.824zm-48.087-.312c-.061.065-.222.334-.358.597-.136.264-.4.697-.585.963-.185.265-.337.51-.337.544 0 .088.458.278 1.49.617.495.163.9.316.9.339 0 .056-.547 1.474-.917 2.377a82.36 82.36 0 01-1.075 2.4c-.998 2.152-1.262 2.767-1.228 2.855.042.109.24.221.921.523.794.353 1.6.653 1.867.695l.206.033.322-.811c.177-.446.536-1.382.798-2.08.675-1.796 1.674-4.212 1.98-4.79.041-.077.175-.027 1.095.41.576.274 1.089.498 1.14.498.118 0 .163-.09.309-.607a9.93 9.93 0 01.404-1.064c.157-.353.286-.666.286-.694 0-.03-.747-.303-1.66-.608-1.771-.593-3.146-1.155-4.524-1.85l-.889-.448c-.019-.009-.084.037-.145.101zm36.057 1.1c-1.338.285-2.568 1.034-3.283 2-1.18 1.59-1.38 3.629-.558 5.671.672 1.671 1.93 2.841 3.606 3.353.438.134.542.145 1.377.145.812 0 .956-.014 1.434-.142.955-.256 2.193-.935 3.056-1.677l.295-.254.847-.112c.742-.098 1.086-.192 1.086-.297 0-.016-.158-.366-.352-.778-.643-1.366-.929-2.059-1.302-3.152-.377-1.103-.475-1.321-.59-1.32-.037 0-.305.112-.597.246-.292.135-.926.378-1.408.541-.815.275-.877.305-.892.433-.01.093.175.509.57 1.277l.587 1.14-.252.22c-.353.31-.652.509-1.036.687-1.497.692-2.823.211-3.513-1.275-.712-1.535-.337-3.069.898-3.678a2.563 2.563 0 011.275-.3c.498.001.752.06 1.349.31.329.138.343.14.434.046.233-.237.704-1.746.676-2.167-.014-.224-.038-.264-.228-.395-.31-.213-.897-.445-1.366-.54-.553-.114-1.532-.105-2.113.019zm-8.63 2.804a62.576 62.576 0 01-3.94.55c-.853.097-1.576.193-1.607.213-.086.052-.072.189.13 1.272.539 2.878.79 4.57.928 6.257.11 1.346.278 2.93.324 3.05.036.093.087.119.238.119.106 0 1.355-.155 2.777-.345a145.46 145.46 0 013.506-.435c.877-.084.927-.095 1.01-.22.124-.19.129-2.492.004-2.616-.091-.091-.235-.07-1.591.23-.957.212-2.301.392-2.597.348-.498-.074-.583-.196-.697-.999-.075-.536-.057-.572.307-.63.99-.154 2.343-.31 2.92-.336.446-.02.723-.054.757-.094.034-.041.035-.2.004-.454a22.02 22.02 0 01-.087-1.3c-.024-.586-.059-.916-.097-.93-.032-.013-.453.056-.935.153-1.502.302-2.857.495-3.035.434-.193-.067-.288-.245-.365-.686-.093-.53-.062-.686.16-.793.213-.102 1.585-.271 2.921-.36 1.342-.088 1.328-.086 1.327-.254 0-.171-.338-1.678-.456-2.03-.142-.428-.17-.43-1.907-.144zm-15.827.223c-.044.13-.399 3.506-.399 3.798 0 .372.107.722.668 2.184.903 2.352 1.961 4.849 2.098 4.947.099.071.353.112 1.094.174.53.045 1.108.082 1.282.082h.317l.255-.41c.14-.224.637-1.003 1.104-1.73 1.025-1.593 1.901-3.069 2.29-3.855l.288-.581.161-1.743c.089-.959.172-1.82.185-1.915.04-.29-.026-.312-1.015-.35-.491-.02-1.16-.05-1.488-.068l-.595-.032-.027.126c-.016.07-.078.875-.14 1.79-.127 1.925-.129 1.932-.742 3.002-.598 1.043-1.35 2.222-1.392 2.182-.074-.071-.794-1.837-1.027-2.52-.162-.475-.236-.776-.236-.97 0-.155.095-.938.21-1.74.25-1.734.275-2.062.162-2.12-.09-.048-2.525-.322-2.83-.319-.111.001-.21.031-.223.068z" fill="#F6F1E3"/></svg>