<svg width="20" height="20" fill="none" xmlns="http://www.w3.org/2000/svg"><path fill-rule="evenodd" clip-rule="evenodd" d="M19.008.046c-.061.024-2.113 2.045-4.56 4.493L10 8.989l-4.448-4.45C.715-.295 1.024-.016.604.063.384.103.117.37.076.59c-.079.42-.358.112 4.475 4.951l4.445 4.452-4.467 4.474C-.32 19.322-.047 19.02.03 19.434c.04.21.325.496.536.535.413.078.11.352 4.963-4.5L10 10.997l4.472 4.47c4.86 4.86 4.55 4.58 4.97 4.5.22-.04.486-.308.527-.528.08-.42.36-.11-4.496-4.973l-4.468-4.474 4.467-4.474C20.315.67 20.047.964 19.971.556c-.077-.407-.565-.666-.963-.51z" fill="#AEAEAF"/></svg>