<svg width="20" height="20" fill="none" xmlns="http://www.w3.org/2000/svg"><path d="M19.91 15.94l-.1-.3c-.235-.702-1.008-1.432-1.718-1.625l-2.628-.718c-.712-.194-1.729.067-2.25.588l-.95.951a10.087 10.087 0 01-7.1-7.1l.951-.95c.522-.521.782-1.537.589-2.25l-.717-2.628C5.793 1.197 5.061.424 4.362.191l-.3-.101c-.701-.233-1.7.003-2.222.524L.418 2.038C.163 2.29 0 3.014 0 3.016A16.8 16.8 0 004.917 15.08a16.805 16.805 0 0012.025 4.917c.023 0 .767-.16 1.022-.413l1.422-1.422c.521-.522.757-1.521.524-2.222z" fill="url(#paint0_linear_332_2239)"/><defs><linearGradient id="paint0_linear_332_2239" x1="-2.435" y1="19.996" x2="21.629" y2="17.926" gradientUnits="userSpaceOnUse"><stop stop-color="#569434"/><stop offset=".24" stop-color="#6AAB46"/><stop offset=".472" stop-color="#77BA53"/><stop offset=".653" stop-color="#7BBE57"/><stop offset=".879" stop-color="#91D36C"/><stop offset="1" stop-color="#A4E67E"/></linearGradient></defs></svg>