<svg width="80" height="16" fill="none" xmlns="http://www.w3.org/2000/svg"><path d="M72 0l1.787 5.54 5.822-.012-4.718 3.411 1.811 5.533L72 11.04l-4.702 3.432 1.81-5.533-4.717-3.411 5.822.013L72 0z" fill="url(#paint0_linear_332_2137)"/><path d="M56 0l1.787 5.54 5.822-.012-4.718 3.411 1.811 5.533L56 11.04l-4.702 3.432 1.81-5.533-4.716-3.411 5.821.013L56 0z" fill="url(#paint1_linear_332_2137)"/><path d="M40 0l1.787 5.54 5.822-.012-4.718 3.411 1.811 5.533L40 11.04l-4.702 3.432 1.81-5.533-4.716-3.411 5.821.013L40 0z" fill="url(#paint2_linear_332_2137)"/><path d="M24 0l1.787 5.54 5.822-.012-4.718 3.411 1.811 5.533L24 11.04l-4.702 3.432 1.81-5.533-4.716-3.411 5.821.013L24 0z" fill="url(#paint3_linear_332_2137)"/><path d="M8 0l1.787 5.54 5.821-.012-4.717 3.411 1.811 5.533L8 11.04l-4.702 3.432 1.81-5.533L.393 5.528l5.821.013L8 0z" fill="url(#paint4_linear_332_2137)"/><defs><linearGradient id="paint0_linear_332_2137" x1="55.429" y1="-9.286" x2="77.826" y2="-9.191" gradientUnits="userSpaceOnUse"><stop stop-color="#C39D65"/><stop offset=".333" stop-color="#D5AF76"/><stop offset=".531" stop-color="#EBC389"/><stop offset=".807" stop-color="#CFA870"/><stop offset="1" stop-color="#C39D65"/></linearGradient><linearGradient id="paint1_linear_332_2137" x1="39.429" y1="-9.286" x2="61.826" y2="-9.191" gradientUnits="userSpaceOnUse"><stop stop-color="#C39D65"/><stop offset=".333" stop-color="#D5AF76"/><stop offset=".531" stop-color="#EBC389"/><stop offset=".807" stop-color="#CFA870"/><stop offset="1" stop-color="#C39D65"/></linearGradient><linearGradient id="paint2_linear_332_2137" x1="23.429" y1="-9.286" x2="45.826" y2="-9.191" gradientUnits="userSpaceOnUse"><stop stop-color="#C39D65"/><stop offset=".333" stop-color="#D5AF76"/><stop offset=".531" stop-color="#EBC389"/><stop offset=".807" stop-color="#CFA870"/><stop offset="1" stop-color="#C39D65"/></linearGradient><linearGradient id="paint3_linear_332_2137" x1="7.429" y1="-9.286" x2="29.826" y2="-9.191" gradientUnits="userSpaceOnUse"><stop stop-color="#C39D65"/><stop offset=".333" stop-color="#D5AF76"/><stop offset=".531" stop-color="#EBC389"/><stop offset=".807" stop-color="#CFA870"/><stop offset="1" stop-color="#C39D65"/></linearGradient><linearGradient id="paint4_linear_332_2137" x1="-8.571" y1="-9.286" x2="13.826" y2="-9.191" gradientUnits="userSpaceOnUse"><stop stop-color="#C39D65"/><stop offset=".333" stop-color="#D5AF76"/><stop offset=".531" stop-color="#EBC389"/><stop offset=".807" stop-color="#CFA870"/><stop offset="1" stop-color="#C39D65"/></linearGradient></defs></svg>