<svg width="197" height="31" viewBox="0 0 197 31" fill="none" xmlns="http://www.w3.org/2000/svg">
<rect y="13" width="18" height="18" rx="3" fill="#25415C"/>
<rect x="10" width="10" height="10" rx="3" fill="#F9B759"/>
<rect x="21" y="11" width="10" height="10" rx="3" fill="#EB5856"/>
<path d="M40.824 28.02L37.476 13.26C37.38 12.756 37.488 12.3 37.8 11.892C38.112 11.484 38.532 11.28 39.06 11.28H40.86C41.46 11.28 41.976 11.472 42.408 11.856C42.84 12.24 43.104 12.72 43.2 13.296L45 25.284C45 25.308 45.012 25.32 45.036 25.32C45.06 25.32 45.072 25.308 45.072 25.284L47.052 13.296C47.148 12.72 47.412 12.24 47.844 11.856C48.276 11.472 48.792 11.28 49.392 11.28H52.056C52.656 11.28 53.172 11.472 53.604 11.856C54.06 12.24 54.336 12.72 54.432 13.296L56.376 25.284C56.376 25.308 56.388 25.32 56.412 25.32C56.436 25.32 56.448 25.308 56.448 25.284L58.248 13.296C58.344 12.72 58.608 12.24 59.04 11.856C59.472 11.472 59.988 11.28 60.588 11.28H62.244C62.772 11.28 63.192 11.484 63.504 11.892C63.84 12.3 63.948 12.756 63.828 13.26L60.48 28.02C60.36 28.596 60.06 29.076 59.58 29.46C59.1 29.82 58.56 30 57.96 30H55.152C54.552 30 54.024 29.808 53.568 29.424C53.136 29.04 52.86 28.56 52.74 27.984L50.688 16.356C50.688 16.332 50.676 16.32 50.652 16.32C50.628 16.32 50.616 16.332 50.616 16.356L48.564 27.984C48.468 28.56 48.192 29.04 47.736 29.424C47.28 29.808 46.752 30 46.152 30H43.344C42.744 30 42.204 29.82 41.724 29.46C41.244 29.076 40.944 28.596 40.824 28.02ZM75.0563 14.844C73.9763 14.844 73.1603 15.132 72.6083 15.708C72.0563 16.26 71.7083 17.22 71.5643 18.588C71.5643 18.78 71.6483 18.876 71.8163 18.876H77.9003C78.1163 18.876 78.2243 18.768 78.2243 18.552C78.1283 16.08 77.0723 14.844 75.0563 14.844ZM75.9563 30.36C72.6923 30.36 70.1723 29.532 68.3963 27.876C66.6443 26.22 65.7683 23.808 65.7683 20.64C65.7683 17.496 66.5483 15.096 68.1083 13.44C69.6923 11.76 71.9723 10.92 74.9483 10.92C80.6603 10.92 83.5643 14.04 83.6603 20.28C83.6603 20.856 83.4323 21.348 82.9763 21.756C82.5443 22.14 82.0403 22.332 81.4643 22.332H71.8523C71.6123 22.332 71.5163 22.44 71.5643 22.656C71.7563 23.976 72.2603 24.924 73.0763 25.5C73.9163 26.052 75.1643 26.328 76.8203 26.328C77.9003 26.328 79.0643 26.172 80.3123 25.86C80.8163 25.74 81.2603 25.836 81.6443 26.148C82.0523 26.46 82.2563 26.868 82.2563 27.372V27.444C82.2563 28.044 82.0643 28.596 81.6803 29.1C81.3203 29.58 80.8523 29.868 80.2763 29.964C78.8843 30.228 77.4443 30.36 75.9563 30.36ZM93.2167 18.408V22.872C93.2167 23.688 93.5767 24.42 94.2967 25.068C95.0167 25.716 95.8567 26.04 96.8167 26.04C97.9207 26.04 98.7967 25.596 99.4447 24.708C100.093 23.82 100.417 22.464 100.417 20.64C100.417 17.04 99.2167 15.24 96.8167 15.24C95.8567 15.24 95.0167 15.564 94.2967 16.212C93.5767 16.86 93.2167 17.592 93.2167 18.408ZM89.5447 30C88.9927 30 88.5127 29.796 88.1047 29.388C87.7207 28.98 87.5287 28.5 87.5287 27.948V5.052C87.5287 4.5 87.7207 4.02 88.1047 3.612C88.5127 3.204 88.9927 3 89.5447 3H91.3087C91.8607 3 92.3287 3.204 92.7127 3.612C93.1207 4.02 93.3247 4.5 93.3247 5.052V13.116C93.3247 13.14 93.3367 13.152 93.3607 13.152C93.3847 13.152 93.4087 13.14 93.4327 13.116C95.0407 11.652 96.8287 10.92 98.7967 10.92C101.029 10.92 102.805 11.76 104.125 13.44C105.445 15.12 106.105 17.52 106.105 20.64C106.105 23.688 105.421 26.076 104.053 27.804C102.685 29.508 100.933 30.36 98.7967 30.36C96.5167 30.36 94.6207 29.472 93.1087 27.696L93.0367 27.624C93.0127 27.624 93.0007 27.636 93.0007 27.66V27.948C92.9767 28.524 92.7607 29.016 92.3527 29.424C91.9687 29.808 91.4887 30 90.9127 30H89.5447Z" fill="#25415C"/>
<path d="M112.464 28.748C112.296 28.916 112.092 29 111.852 29C111.612 29 111.408 28.916 111.24 28.748C111.072 28.58 110.988 28.376 110.988 28.136V2.864C110.988 2.624 111.072 2.42 111.24 2.252C111.408 2.084 111.612 2 111.852 2C112.092 2 112.296 2.084 112.464 2.252C112.656 2.42 112.752 2.624 112.752 2.864V18.668C112.752 18.692 112.764 18.704 112.788 18.704H112.824L122.184 11C122.784 10.52 123.468 10.28 124.236 10.28C124.428 10.28 124.548 10.376 124.596 10.568C124.668 10.736 124.632 10.88 124.488 11L114.588 19.1C114.468 19.22 114.468 19.352 114.588 19.496L124.668 28.244C124.788 28.364 124.812 28.52 124.74 28.712C124.668 28.904 124.548 29 124.38 29C123.636 29 122.976 28.748 122.4 28.244L112.824 19.856H112.788C112.764 19.856 112.752 19.868 112.752 19.892V28.136C112.752 28.376 112.656 28.58 112.464 28.748ZM131.005 29.36C128.941 29.36 127.417 28.796 126.433 27.668C125.473 26.54 124.993 24.668 124.993 22.052V11.144C124.993 10.904 125.077 10.7 125.245 10.532C125.413 10.364 125.617 10.28 125.857 10.28C126.097 10.28 126.289 10.364 126.433 10.532C126.601 10.7 126.685 10.904 126.685 11.144V21.872C126.685 24.2 127.069 25.796 127.837 26.66C128.605 27.5 129.781 27.92 131.365 27.92C132.829 27.92 134.209 27.308 135.505 26.084C136.825 24.836 137.485 23.468 137.485 21.98V11.144C137.485 10.904 137.569 10.7 137.737 10.532C137.905 10.364 138.109 10.28 138.349 10.28C138.589 10.28 138.793 10.364 138.961 10.532C139.129 10.7 139.213 10.904 139.213 11.144V28.172C139.213 28.412 139.129 28.616 138.961 28.784C138.817 28.928 138.625 29 138.385 29C138.145 29 137.941 28.928 137.773 28.784C137.629 28.616 137.557 28.412 137.557 28.172L137.521 25.724C137.521 25.7 137.509 25.688 137.485 25.688C137.437 25.688 137.413 25.712 137.413 25.76C135.853 28.16 133.717 29.36 131.005 29.36ZM144.357 28.748C144.189 28.916 143.985 29 143.745 29C143.505 29 143.289 28.916 143.097 28.748C142.929 28.58 142.845 28.364 142.845 28.1V2.9C142.845 2.636 142.929 2.42 143.097 2.252C143.289 2.084 143.505 2 143.745 2C143.985 2 144.189 2.084 144.357 2.252C144.549 2.42 144.645 2.636 144.645 2.9V28.1C144.645 28.364 144.549 28.58 144.357 28.748ZM148.098 12.44C147.906 12.44 147.738 12.368 147.594 12.224C147.45 12.08 147.378 11.912 147.378 11.72C147.378 11.528 147.45 11.36 147.594 11.216C147.738 11.072 147.906 11 148.098 11H151.338C151.53 11 151.626 10.904 151.626 10.712V5.024C151.626 4.784 151.71 4.58 151.878 4.412C152.07 4.244 152.286 4.16 152.526 4.16C152.766 4.16 152.97 4.244 153.138 4.412C153.306 4.58 153.39 4.784 153.39 5.024V10.712C153.39 10.904 153.486 11 153.678 11H159.726C159.918 11 160.086 11.072 160.23 11.216C160.374 11.36 160.446 11.528 160.446 11.72C160.446 11.912 160.374 12.08 160.23 12.224C160.086 12.368 159.918 12.44 159.726 12.44H153.678C153.486 12.44 153.39 12.548 153.39 12.764V23.492C153.39 25.316 153.642 26.516 154.146 27.092C154.674 27.644 155.658 27.92 157.098 27.92C157.866 27.92 158.61 27.812 159.33 27.596C159.498 27.548 159.654 27.584 159.798 27.704C159.966 27.8 160.05 27.944 160.05 28.136C160.05 28.64 159.798 28.952 159.294 29.072C158.478 29.264 157.662 29.36 156.846 29.36C154.854 29.36 153.486 28.952 152.742 28.136C151.998 27.296 151.626 25.784 151.626 23.6V12.764C151.626 12.548 151.53 12.44 151.338 12.44H148.098ZM164.563 28.712C164.371 28.904 164.131 29 163.843 29C163.555 29 163.315 28.904 163.123 28.712C162.931 28.52 162.835 28.28 162.835 27.992V25.58C162.835 25.292 162.931 25.052 163.123 24.86C163.315 24.668 163.555 24.572 163.843 24.572C164.131 24.572 164.371 24.668 164.563 24.86C164.755 25.052 164.851 25.292 164.851 25.58V27.992C164.851 28.28 164.755 28.52 164.563 28.712ZM169.133 28.748C168.965 28.916 168.749 29 168.485 29C168.221 29 168.005 28.916 167.837 28.748C167.669 28.58 167.585 28.364 167.585 28.1V11.144C167.585 10.904 167.669 10.7 167.837 10.532C168.005 10.364 168.209 10.28 168.449 10.28C168.689 10.28 168.893 10.364 169.061 10.532C169.253 10.7 169.349 10.904 169.349 11.144V14.96C169.349 14.984 169.361 14.996 169.385 14.996C169.409 14.996 169.421 14.984 169.421 14.96C170.117 13.52 171.185 12.392 172.625 11.576C174.089 10.736 175.745 10.304 177.593 10.28C177.809 10.28 177.989 10.364 178.133 10.532C178.301 10.676 178.385 10.856 178.385 11.072C178.385 11.288 178.313 11.468 178.169 11.612C178.025 11.756 177.845 11.828 177.629 11.828C175.205 11.852 173.225 12.62 171.689 14.132C170.153 15.644 169.385 17.636 169.385 20.108V28.1C169.385 28.364 169.301 28.58 169.133 28.748ZM185.497 29.36C183.433 29.36 181.909 28.796 180.925 27.668C179.965 26.54 179.485 24.668 179.485 22.052V11.144C179.485 10.904 179.569 10.7 179.737 10.532C179.905 10.364 180.109 10.28 180.349 10.28C180.589 10.28 180.781 10.364 180.925 10.532C181.093 10.7 181.177 10.904 181.177 11.144V21.872C181.177 24.2 181.561 25.796 182.329 26.66C183.097 27.5 184.273 27.92 185.857 27.92C187.321 27.92 188.701 27.308 189.997 26.084C191.317 24.836 191.977 23.468 191.977 21.98V11.144C191.977 10.904 192.061 10.7 192.229 10.532C192.397 10.364 192.601 10.28 192.841 10.28C193.081 10.28 193.285 10.364 193.453 10.532C193.621 10.7 193.705 10.904 193.705 11.144V28.172C193.705 28.412 193.621 28.616 193.453 28.784C193.309 28.928 193.117 29 192.877 29C192.637 29 192.433 28.928 192.265 28.784C192.121 28.616 192.049 28.412 192.049 28.172L192.013 25.724C192.013 25.7 192.001 25.688 191.977 25.688C191.929 25.688 191.905 25.712 191.905 25.76C190.345 28.16 188.209 29.36 185.497 29.36Z" fill="#25415C"/>
</svg>
